
<svg width="83px" height="89px" viewBox="0 0 83 89" version="1.1" xmlns="http://www.w3.org/2000/svg" xmlns:xlink="http://www.w3.org/1999/xlink">
    <g id="Page-1" stroke="none" stroke-width="1" fill="none" fill-rule="evenodd">
        <g id="Mobile" transform="translate(-265.000000, -370.000000)">
            <g id="&gt;&gt;" transform="translate(265.000000, 372.000000)">
                <g id="&gt;" transform="translate(16.000000, 0.000000)" stroke="#0073FF" stroke-width="3">
                    <circle id="Oval-Copy" cx="25" cy="25" r="25"></circle>
                    <polyline id="Path-7" points="17.3469388 14.7959184 33.0729637 25.2189814 17.3469388 35.4591837"></polyline>
                </g>
                <path d="M33.6904828,68 C33.5091485,68 33.3598167,67.9413339 33.2424828,67.824 C33.1251488,67.7066661 33.0664828,67.5626675 33.0664828,67.392 L33.0664828,63.232 C33.0664828,62.5706634 32.9411507,62.0266688 32.6904828,61.6 C32.4398148,61.1733312 32.0984849,60.8533344 31.6664828,60.64 C31.2344806,60.4266656 30.7464855,60.32 30.2024828,60.32 C29.6798135,60.32 29.2078182,60.4213323 28.7864828,60.624 C28.3651473,60.8266677 28.0318173,61.1039982 27.7864828,61.456 C27.5411482,61.8080018 27.4184828,62.2079978 27.4184828,62.656 L26.5384828,62.656 C26.5598162,61.9839966 26.7411477,61.3840026 27.0824828,60.856 C27.4238178,60.3279974 27.8771466,59.9120015 28.4424828,59.608 C29.0078189,59.3039985 29.637146,59.152 30.3304828,59.152 C31.0878199,59.152 31.7651464,59.3093318 32.3624828,59.624 C32.9598191,59.9386682 33.4318144,60.399997 33.7784828,61.008 C34.1251512,61.616003 34.2984828,62.357329 34.2984828,63.232 L34.2984828,67.392 C34.2984828,67.5626675 34.2398167,67.7066661 34.1224828,67.824 C34.0051488,67.9413339 33.8611503,68 33.6904828,68 Z M26.8104828,68 C26.6184818,68 26.4664833,67.9440006 26.3544828,67.832 C26.2424822,67.7199994 26.1864828,67.5733342 26.1864828,67.392 L26.1864828,59.872 C26.1864828,59.679999 26.2424822,59.5280006 26.3544828,59.416 C26.4664833,59.3039994 26.6184818,59.248 26.8104828,59.248 C26.991817,59.248 27.1384822,59.3039994 27.2504828,59.416 C27.3624833,59.5280006 27.4184828,59.679999 27.4184828,59.872 L27.4184828,67.392 C27.4184828,67.5733342 27.3624833,67.7199994 27.2504828,67.832 C27.1384822,67.9440006 26.991817,68 26.8104828,68 Z M37.0306499,63.008 L42.8902,63.008 C42.849012,62.585033 42.7433596,62.1957017 42.5732414,61.84 C42.3385735,61.3493309 42.0052435,60.9653347 41.5732414,60.688 C41.1412392,60.4106653 40.6265777,60.272 40.0292414,60.272 C39.4212383,60.272 38.8879103,60.4159986 38.4292414,60.704 C37.9705724,60.9920014 37.6159093,61.3893308 37.3652414,61.896 C37.231256,62.1668215 37.1330797,62.4582114 37.0707118,62.7701722 L37.0306499,63.008 L37.0306499,63.008 Z M37.0079355,64.032 C37.0548259,64.5212694 37.1899271,64.9639332 37.4132414,65.36 C37.6959095,65.8613358 38.0825723,66.2559986 38.5732414,66.544 C39.0639105,66.8320014 39.6292382,66.976 40.2692414,66.976 C40.6532433,66.976 41.0399061,66.909334 41.4292414,66.776 C41.8185767,66.642666 42.1305735,66.4746677 42.3652414,66.272 C42.4825753,66.1759995 42.6159073,66.1253334 42.7652414,66.12 C42.9145755,66.1146666 43.0425742,66.1546662 43.1492414,66.24 C43.2879087,66.3680006 43.359908,66.5066659 43.3652414,66.656 C43.3705747,66.8053341 43.309242,66.9333328 43.1812414,67.04 C42.8292396,67.3386682 42.3812441,67.5866657 41.8372414,67.784 C41.2932387,67.9813343 40.7705772,68.08 40.2692414,68.08 C39.4052371,68.08 38.6399114,67.8906686 37.9732414,67.512 C37.3065714,67.1333314 36.7839099,66.6080034 36.4052414,65.936 C36.0265728,65.2639966 35.8372414,64.4960043 35.8372414,63.632 C35.8372414,62.757329 36.0159063,61.98667 36.3732414,61.32 C36.7305765,60.65333 37.2239049,60.1280019 37.8532414,59.744 C38.4825779,59.3599981 39.2079039,59.168 40.0292414,59.168 C40.8399121,59.168 41.5465717,59.3519982 42.1492414,59.72 C42.7519111,60.0880018 43.2185731,60.5973301 43.5492414,61.248 C43.8799097,61.8986699 44.0452414,62.6399958 44.0452414,63.472 C44.0452414,63.6426675 43.9919086,63.7786662 43.8852414,63.88 C43.7785742,63.9813338 43.6399089,64.032 43.4692414,64.032 L37.0079355,64.032 L37.0079355,64.032 Z M51.04,68 C50.9119994,68 50.8080004,67.9786669 50.728,67.936 C50.6479996,67.8933331 50.5653338,67.8186672 50.48,67.712 L47.712,64.192 L47.232,63.776 L44.448,60.24 C44.3306661,60.1013326 44.2746666,59.9573341 44.28,59.808 C44.2853334,59.6586659 44.3359995,59.5280006 44.432,59.416 C44.5280005,59.3039994 44.6666658,59.248 44.848,59.248 C45.0293342,59.248 45.1839994,59.3119994 45.312,59.44 L48,62.88 L48.432,63.232 L51.408,67.04 C51.5466674,67.2106675 51.6053334,67.3706659 51.584,67.52 C51.5626666,67.6693341 51.4960006,67.7866662 51.384,67.872 C51.2719994,67.9573338 51.1573339,68 51.04,68 Z M44.704,68 C44.5333325,68 44.3973338,67.9466672 44.296,67.84 C44.1946662,67.7333328 44.1413334,67.6053341 44.136,67.456 C44.1306666,67.3066659 44.1866661,67.1626674 44.304,67.024 L47.248,63.344 L47.936,64.256 L45.136,67.808 C45.0399995,67.9360006 44.896001,68 44.704,68 Z M48.448,63.84 L47.664,63.04 L50.432,59.536 C50.506667,59.4293328 50.5893329,59.3546669 50.68,59.312 C50.7706671,59.2693331 50.8639995,59.248 50.96,59.248 C51.1413342,59.248 51.2799995,59.3039994 51.376,59.416 C51.4720005,59.5280006 51.5173334,59.6613326 51.512,59.816 C51.5066666,59.9706674 51.4506672,60.1173326 51.344,60.256 L48.448,63.84 Z M56.4027586,68 C55.8374225,68 55.3334275,67.866668 54.8907586,67.6 C54.4480897,67.333332 54.0987599,66.9680023 53.8427586,66.504 C53.5867573,66.0399977 53.4587586,65.5093363 53.4587586,64.912 L53.4587586,57.088 C53.4587586,56.9066658 53.5147581,56.7573339 53.6267586,56.64 C53.7387592,56.5226661 53.8854244,56.464 54.0667586,56.464 C54.2480929,56.464 54.3974247,56.5226661 54.5147586,56.64 C54.6320925,56.7573339 54.6907586,56.9066658 54.6907586,57.088 L54.6907586,64.912 C54.6907586,65.4560027 54.850757,65.9013316 55.1707586,66.248 C55.4907602,66.5946684 55.9014228,66.768 56.4027586,66.768 L56.8347586,66.768 C57.0054261,66.768 57.1440914,66.8266661 57.2507586,66.944 C57.3574258,67.0613339 57.4107586,67.2106658 57.4107586,67.392 C57.4107586,67.5733342 57.3467593,67.7199994 57.2187586,67.832 C57.090758,67.9440006 56.9307596,68 56.7387586,68 L56.4027586,68 Z M52.4187586,60.64 C52.2587578,60.64 52.1254258,60.5893338 52.0187586,60.488 C51.9120914,60.3866662 51.8587586,60.2613341 51.8587586,60.112 C51.8587586,59.9519992 51.9120914,59.8213338 52.0187586,59.72 C52.1254258,59.6186662 52.2587578,59.568 52.4187586,59.568 L56.4987586,59.568 C56.6587594,59.568 56.7920914,59.6186662 56.8987586,59.72 C57.0054258,59.8213338 57.0587586,59.9519992 57.0587586,60.112 C57.0587586,60.2613341 57.0054258,60.3866662 56.8987586,60.488 C56.7920914,60.5893338 56.6587594,60.64 56.4987586,60.64 L52.4187586,60.64 Z M12.5622069,86 C12.3808727,86 12.2315408,85.9440006 12.1142069,85.832 C11.996873,85.7199994 11.9382069,85.5733342 11.9382069,85.392 L11.9382069,80.784 C11.9382069,80.0266629 11.7408755,79.4266689 11.3462069,78.984 C10.9515383,78.5413311 10.4448767,78.32 9.8262069,78.32 C9.16487026,78.32 8.62354234,78.5413311 8.2022069,78.984 C7.78087146,79.4266689 7.57554018,80.0159963 7.5862069,80.752 L6.4822069,80.752 C6.49287362,80.0373298 6.64753874,79.4080027 6.9462069,78.864 C7.24487506,78.3199973 7.65553762,77.8986682 8.1782069,77.6 C8.70087618,77.3013318 9.29287026,77.152 9.9542069,77.152 C10.5835434,77.152 11.1408711,77.3013318 11.6262069,77.6 C12.1115427,77.8986682 12.4902055,78.3199973 12.7622069,78.864 C13.0342083,79.4080027 13.1702069,80.0479963 13.1702069,80.784 L13.1702069,85.392 C13.1702069,85.5733342 13.1142075,85.7199994 13.0022069,85.832 C12.8902063,85.9440006 12.7435411,86 12.5622069,86 Z M1.3622069,86 C1.17020594,86 1.01820746,85.9440006 0.906206897,85.832 C0.794206337,85.7199994 0.738206897,85.5733342 0.738206897,85.392 L0.738206897,77.872 C0.738206897,77.6906658 0.794206337,77.5413339 0.906206897,77.424 C1.01820746,77.3066661 1.17020594,77.248 1.3622069,77.248 C1.54354114,77.248 1.69020634,77.3066661 1.8022069,77.424 C1.91420746,77.5413339 1.9702069,77.6906658 1.9702069,77.872 L1.9702069,85.392 C1.9702069,85.5733342 1.91420746,85.7199994 1.8022069,85.832 C1.69020634,85.9440006 1.54354114,86 1.3622069,86 Z M6.9782069,86 C6.79687266,86 6.64754082,85.9440006 6.5302069,85.832 C6.41287298,85.7199994 6.3542069,85.5733342 6.3542069,85.392 L6.3542069,80.784 C6.3542069,80.0266629 6.15687554,79.4266689 5.7622069,78.984 C5.36753826,78.5413311 4.86087666,78.32 4.2422069,78.32 C3.58087026,78.32 3.0368757,78.5359978 2.6102069,78.968 C2.1835381,79.4000022 1.9702069,79.9626632 1.9702069,80.656 L1.0902069,80.656 C1.11154034,79.9733299 1.26353882,79.3680026 1.5462069,78.84 C1.82887498,78.3119974 2.21553778,77.8986682 2.7062069,77.6 C3.19687602,77.3013318 3.75153714,77.152 4.3702069,77.152 C4.99954338,77.152 5.55687114,77.3013318 6.0422069,77.6 C6.52754266,77.8986682 6.90620554,78.3199973 7.1782069,78.864 C7.45020826,79.4080027 7.5862069,80.0479963 7.5862069,80.784 L7.5862069,85.392 C7.5862069,85.5733342 7.53020746,85.7199994 7.4182069,85.832 C7.30620634,85.9440006 7.15954114,86 6.9782069,86 Z M15.9023741,81.008 L21.7619241,81.008 C21.7207362,80.585033 21.6150837,80.1957017 21.4449655,79.84 C21.2102977,79.3493309 20.8769677,78.9653347 20.4449655,78.688 C20.0129634,78.4106653 19.4983018,78.272 18.9009655,78.272 C18.2929625,78.272 17.7596345,78.4159986 17.3009655,78.704 C16.8422966,78.9920014 16.4876334,79.3893308 16.2369655,79.896 C16.1029801,80.1668215 16.0048038,80.4582114 15.9424359,80.7701722 L15.9023741,81.008 L15.9023741,81.008 Z M15.8796597,82.032 C15.92655,82.5212694 16.0616513,82.9639332 16.2849655,83.36 C16.5676336,83.8613358 16.9542964,84.2559986 17.4449655,84.544 C17.9356346,84.8320014 18.5009623,84.976 19.1409655,84.976 C19.5249674,84.976 19.9116302,84.909334 20.3009655,84.776 C20.6903008,84.642666 21.0022977,84.4746677 21.2369655,84.272 C21.3542994,84.1759995 21.4876314,84.1253334 21.6369655,84.12 C21.7862996,84.1146666 21.9142983,84.1546662 22.0209655,84.24 C22.1596329,84.3680006 22.2316322,84.5066659 22.2369655,84.656 C22.2422989,84.8053341 22.1809662,84.9333328 22.0529655,85.04 C21.7009638,85.3386682 21.2529682,85.5866657 20.7089655,85.784 C20.1649628,85.9813343 19.6423014,86.08 19.1409655,86.08 C18.2769612,86.08 17.5116355,85.8906686 16.8449655,85.512 C16.1782955,85.1333314 15.6556341,84.6080034 15.2769655,83.936 C14.898297,83.2639966 14.7089655,82.4960043 14.7089655,81.632 C14.7089655,80.757329 14.8876304,79.98667 15.2449655,79.32 C15.6023006,78.65333 16.095629,78.1280019 16.7249655,77.744 C17.354302,77.3599981 18.0796281,77.168 18.9009655,77.168 C19.7116362,77.168 20.4182958,77.3519982 21.0209655,77.72 C21.6236352,78.0880018 22.0902972,78.5973301 22.4209655,79.248 C22.7516338,79.8986699 22.9169655,80.6399958 22.9169655,81.472 C22.9169655,81.6426675 22.8636327,81.7786662 22.7569655,81.88 C22.6502983,81.9813338 22.511633,82.032 22.3409655,82.032 L15.8796597,82.032 L15.8796597,82.032 Z M27.9437241,86.08 C27.1010533,86.08 26.3437275,85.8853353 25.6717241,85.496 C24.9997208,85.1066647 24.4690594,84.5760034 24.0797241,83.904 C23.6903889,83.2319966 23.4957241,82.4693376 23.4957241,81.616 C23.4957241,80.7733291 23.6850556,80.0160034 24.0637241,79.344 C24.4423927,78.6719966 24.9570542,78.1413353 25.6077241,77.752 C26.2583941,77.3626647 26.9943867,77.168 27.8157241,77.168 C28.5303944,77.168 29.1757213,77.3199985 29.7517241,77.624 C30.327727,77.9280015 30.7917224,78.3306642 31.1437241,78.832 L31.1437241,74.128 C31.1437241,73.935999 31.2023902,73.7840006 31.3197241,73.672 C31.4370581,73.5599994 31.5863899,73.504 31.7677241,73.504 C31.9490584,73.504 32.0983902,73.5599994 32.2157241,73.672 C32.3330581,73.7840006 32.3917241,73.935999 32.3917241,74.128 L32.3917241,81.68 C32.3703907,82.5120042 32.1650594,83.26133 31.7757241,83.928 C31.3863889,84.59467 30.8583941,85.1199981 30.1917241,85.504 C29.5250541,85.8880019 28.7757283,86.08 27.9437241,86.08 Z M27.9437241,84.96 C28.5623939,84.96 29.1143884,84.8133348 29.5997241,84.52 C30.0850599,84.2266652 30.4690561,83.8293358 30.7517241,83.328 C31.0343922,82.8266642 31.1757241,82.2560032 31.1757241,81.616 C31.1757241,80.9866635 31.0343922,80.4186692 30.7517241,79.912 C30.4690561,79.4053308 30.0850599,79.0080014 29.5997241,78.72 C29.1143884,78.4319986 28.5623939,78.288 27.9437241,78.288 C27.3357211,78.288 26.7863933,78.4319986 26.2957241,78.72 C25.805055,79.0080014 25.4157256,79.4053308 25.1277241,79.912 C24.8397227,80.4186692 24.6957241,80.9866635 24.6957241,81.616 C24.6957241,82.2560032 24.8397227,82.8266642 25.1277241,83.328 C25.4157256,83.8293358 25.805055,84.2266652 26.2957241,84.52 C26.7863933,84.8133348 27.3357211,84.96 27.9437241,84.96 Z M35.4344828,86 C35.2424818,86 35.0904833,85.9440006 34.9784828,85.832 C34.8664822,85.7199994 34.8104828,85.568001 34.8104828,85.376 L34.8104828,77.872 C34.8104828,77.679999 34.8664822,77.5280006 34.9784828,77.416 C35.0904833,77.3039994 35.2424818,77.248 35.4344828,77.248 C35.615817,77.248 35.7624822,77.3039994 35.8744828,77.416 C35.9864833,77.5280006 36.0424828,77.679999 36.0424828,77.872 L36.0424828,85.376 C36.0424828,85.568001 35.9864833,85.7199994 35.8744828,85.832 C35.7624822,85.9440006 35.615817,86 35.4344828,86 Z M35.4184828,75.584 C35.1838149,75.584 34.9811503,75.4986675 34.8104828,75.328 C34.6398152,75.1573325 34.5544828,74.9493346 34.5544828,74.704 C34.5544828,74.437332 34.6424819,74.2266674 34.8184828,74.072 C34.9944836,73.9173326 35.1998149,73.84 35.4344828,73.84 C35.6584839,73.84 35.8584819,73.9173326 36.0344828,74.072 C36.2104836,74.2266674 36.2984828,74.437332 36.2984828,74.704 C36.2984828,74.9493346 36.2131503,75.1573325 36.0424828,75.328 C35.8718152,75.4986675 35.6638173,75.584 35.4184828,75.584 Z M41.8852414,86 C41.3199052,86 40.8159103,85.866668 40.3732414,85.6 C39.9305725,85.333332 39.5812427,84.9680023 39.3252414,84.504 C39.0692401,84.0399977 38.9412414,83.5093363 38.9412414,82.912 L38.9412414,75.088 C38.9412414,74.9066658 38.9972408,74.7573339 39.1092414,74.64 C39.2212419,74.5226661 39.3679071,74.464 39.5492414,74.464 C39.7305756,74.464 39.8799075,74.5226661 39.9972414,74.64 C40.1145753,74.7573339 40.1732414,74.9066658 40.1732414,75.088 L40.1732414,82.912 C40.1732414,83.4560027 40.3332398,83.9013316 40.6532414,84.248 C40.973243,84.5946684 41.3839055,84.768 41.8852414,84.768 L42.3172414,84.768 C42.4879089,84.768 42.6265742,84.8266661 42.7332414,84.944 C42.8399086,85.0613339 42.8932414,85.2106658 42.8932414,85.392 C42.8932414,85.5733342 42.829242,85.7199994 42.7012414,85.832 C42.5732407,85.9440006 42.4132423,86 42.2212414,86 L41.8852414,86 Z M37.9012414,78.64 C37.7412406,78.64 37.6079086,78.5893338 37.5012414,78.488 C37.3945742,78.3866662 37.3412414,78.2613341 37.3412414,78.112 C37.3412414,77.9519992 37.3945742,77.8213338 37.5012414,77.72 C37.6079086,77.6186662 37.7412406,77.568 37.9012414,77.568 L41.9812414,77.568 C42.1412422,77.568 42.2745742,77.6186662 42.3812414,77.72 C42.4879086,77.8213338 42.5412414,77.9519992 42.5412414,78.112 C42.5412414,78.2613341 42.4879086,78.3866662 42.3812414,78.488 C42.2745742,78.5893338 42.1412422,78.64 41.9812414,78.64 L37.9012414,78.64 Z M48.032,86.08 C47.2106626,86.08 46.4746699,85.8853353 45.824,85.496 C45.1733301,85.1066647 44.6586686,84.5760034 44.28,83.904 C43.9013314,83.2319966 43.712,82.4746709 43.712,81.632 C43.712,80.7786624 43.9066647,80.0160034 44.296,79.344 C44.6853353,78.6719966 45.2159966,78.1413353 45.888,77.752 C46.5600034,77.3626647 47.3173291,77.168 48.16,77.168 C49.0026709,77.168 49.75733,77.3626647 50.424,77.752 C51.09067,78.1413353 51.6186647,78.6719966 52.008,79.344 C52.3973353,80.0160034 52.5973333,80.7786624 52.608,81.632 L52.112,82.016 C52.112,82.7840038 51.9333351,83.4746636 51.576,84.088 C51.2186649,84.7013364 50.7333364,85.1866649 50.12,85.544 C49.5066636,85.9013351 48.8106706,86.08 48.032,86.08 Z M48.16,84.96 C48.7786698,84.96 49.3306642,84.8160014 49.816,84.528 C50.3013358,84.2399986 50.6853319,83.8426692 50.968,83.336 C51.2506681,82.8293308 51.392,82.2613365 51.392,81.632 C51.392,80.9919968 51.2506681,80.4213358 50.968,79.92 C50.6853319,79.4186642 50.3013358,79.0213348 49.816,78.728 C49.3306642,78.4346652 48.7786698,78.288 48.16,78.288 C47.551997,78.288 47.0026691,78.4346652 46.512,78.728 C46.0213309,79.0213348 45.6320014,79.4186642 45.344,79.92 C45.0559986,80.4213358 44.912,80.9919968 44.912,81.632 C44.912,82.2613365 45.0559986,82.8293308 45.344,83.336 C45.6320014,83.8426692 46.0213309,84.2399986 46.512,84.528 C47.0026691,84.8160014 47.551997,84.96 48.16,84.96 Z M51.984,86 C51.8026658,86 51.6533339,85.9440006 51.536,85.832 C51.4186661,85.7199994 51.36,85.5733342 51.36,85.392 L51.36,82.656 L51.664,81.392 L52.608,81.632 L52.608,85.392 C52.608,85.5733342 52.5493339,85.7199994 52.432,85.832 C52.3146661,85.9440006 52.1653342,86 51.984,86 Z M57.7147586,86 C57.1494225,86 56.6454275,85.866668 56.2027586,85.6 C55.7600897,85.333332 55.4107599,84.9680023 55.1547586,84.504 C54.8987573,84.0399977 54.7707586,83.5093363 54.7707586,82.912 L54.7707586,75.088 C54.7707586,74.9066658 54.8267581,74.7573339 54.9387586,74.64 C55.0507592,74.5226661 55.1974244,74.464 55.3787586,74.464 C55.5600929,74.464 55.7094247,74.5226661 55.8267586,74.64 C55.9440925,74.7573339 56.0027586,74.9066658 56.0027586,75.088 L56.0027586,82.912 C56.0027586,83.4560027 56.162757,83.9013316 56.4827586,84.248 C56.8027602,84.5946684 57.2134228,84.768 57.7147586,84.768 L58.1467586,84.768 C58.3174261,84.768 58.4560914,84.8266661 58.5627586,84.944 C58.6694258,85.0613339 58.7227586,85.2106658 58.7227586,85.392 C58.7227586,85.5733342 58.6587593,85.7199994 58.5307586,85.832 C58.402758,85.9440006 58.2427596,86 58.0507586,86 L57.7147586,86 Z M53.7307586,78.64 C53.5707578,78.64 53.4374258,78.5893338 53.3307586,78.488 C53.2240914,78.3866662 53.1707586,78.2613341 53.1707586,78.112 C53.1707586,77.9519992 53.2240914,77.8213338 53.3307586,77.72 C53.4374258,77.6186662 53.5707578,77.568 53.7307586,77.568 L57.8107586,77.568 C57.9707594,77.568 58.1040914,77.6186662 58.2107586,77.72 C58.3174258,77.8213338 58.3707586,77.9519992 58.3707586,78.112 C58.3707586,78.2613341 58.3174258,78.3866662 58.2107586,78.488 C58.1040914,78.5893338 57.9707594,78.64 57.8107586,78.64 L53.7307586,78.64 Z M60.8855172,86 C60.6935163,86 60.5415178,85.9440006 60.4295172,85.832 C60.3175167,85.7199994 60.2615172,85.568001 60.2615172,85.376 L60.2615172,77.872 C60.2615172,77.679999 60.3175167,77.5280006 60.4295172,77.416 C60.5415178,77.3039994 60.6935163,77.248 60.8855172,77.248 C61.0668515,77.248 61.2135167,77.3039994 61.3255172,77.416 C61.4375178,77.5280006 61.4935172,77.679999 61.4935172,77.872 L61.4935172,85.376 C61.4935172,85.568001 61.4375178,85.7199994 61.3255172,85.832 C61.2135167,85.9440006 61.0668515,86 60.8855172,86 Z M60.8695172,75.584 C60.6348494,75.584 60.4321848,75.4986675 60.2615172,75.328 C60.0908497,75.1573325 60.0055172,74.9493346 60.0055172,74.704 C60.0055172,74.437332 60.0935164,74.2266674 60.2695172,74.072 C60.4455181,73.9173326 60.6508494,73.84 60.8855172,73.84 C61.1095184,73.84 61.3095164,73.9173326 61.4855172,74.072 C61.6615181,74.2266674 61.7495172,74.437332 61.7495172,74.704 C61.7495172,74.9493346 61.6641848,75.1573325 61.4935172,75.328 C61.3228497,75.4986675 61.1148518,75.584 60.8695172,75.584 Z M67.8962759,86.08 C67.0429383,86.08 66.2802792,85.8880019 65.6082759,85.504 C64.9362725,85.1199981 64.4082778,84.5920034 64.0242759,83.92 C63.6402739,83.2479966 63.4482759,82.4853376 63.4482759,81.632 C63.4482759,80.7679957 63.6402739,80.0000034 64.0242759,79.328 C64.4082778,78.6559966 64.9362725,78.1280019 65.6082759,77.744 C66.2802792,77.3599981 67.0429383,77.168 67.8962759,77.168 C68.7496135,77.168 69.5096059,77.3599981 70.1762759,77.744 C70.8429459,78.1280019 71.3682739,78.6559966 71.7522759,79.328 C72.1362778,80.0000034 72.3336091,80.7679957 72.3442759,81.632 C72.3442759,82.4853376 72.1496111,83.2479966 71.7602759,83.92 C71.3709406,84.5920034 70.8429459,85.1199981 70.1762759,85.504 C69.5096059,85.8880019 68.7496135,86.08 67.8962759,86.08 Z M67.8962759,84.96 C68.5149456,84.96 69.0696067,84.8160014 69.5602759,84.528 C70.050945,84.2399986 70.4349411,83.8453358 70.7122759,83.344 C70.9896106,82.8426642 71.1282759,82.2720032 71.1282759,81.632 C71.1282759,80.9919968 70.9896106,80.4186692 70.7122759,79.912 C70.4349411,79.4053308 70.050945,79.0080014 69.5602759,78.72 C69.0696067,78.4319986 68.5149456,78.288 67.8962759,78.288 C67.2776061,78.288 66.722945,78.4319986 66.2322759,78.72 C65.7416067,79.0080014 65.3549439,79.4053308 65.0722759,79.912 C64.7896078,80.4186692 64.6482759,80.9919968 64.6482759,81.632 C64.6482759,82.2720032 64.7896078,82.8426642 65.0722759,83.344 C65.3549439,83.8453358 65.7416067,84.2399986 66.2322759,84.528 C66.722945,84.8160014 67.2776061,84.96 67.8962759,84.96 Z M81.5310345,86 C81.3497002,86 81.2003684,85.9413339 81.0830345,85.824 C80.9657006,85.7066661 80.9070345,85.5626675 80.9070345,85.392 L80.9070345,81.232 C80.9070345,80.5706634 80.7817024,80.0266688 80.5310345,79.6 C80.2803666,79.1733312 79.9390366,78.8533344 79.5070345,78.64 C79.0750323,78.4266656 78.5870372,78.32 78.0430345,78.32 C77.5203652,78.32 77.0483699,78.4213323 76.6270345,78.624 C76.205699,78.8266677 75.872369,79.1039982 75.6270345,79.456 C75.3816999,79.8080018 75.2590345,80.2079978 75.2590345,80.656 L74.3790345,80.656 C74.4003679,79.9839966 74.5816994,79.3840026 74.9230345,78.856 C75.2643695,78.3279974 75.7176983,77.9120015 76.2830345,77.608 C76.8483706,77.3039985 77.4776977,77.152 78.1710345,77.152 C78.9283716,77.152 79.6056982,77.3093318 80.2030345,77.624 C80.8003708,77.9386682 81.2723661,78.399997 81.6190345,79.008 C81.9657029,79.616003 82.1390345,80.357329 82.1390345,81.232 L82.1390345,85.392 C82.1390345,85.5626675 82.0803684,85.7066661 81.9630345,85.824 C81.8457006,85.9413339 81.701702,86 81.5310345,86 Z M74.6510345,86 C74.4590335,86 74.307035,85.9440006 74.1950345,85.832 C74.0830339,85.7199994 74.0270345,85.5733342 74.0270345,85.392 L74.0270345,77.872 C74.0270345,77.679999 74.0830339,77.5280006 74.1950345,77.416 C74.307035,77.3039994 74.4590335,77.248 74.6510345,77.248 C74.8323687,77.248 74.9790339,77.3039994 75.0910345,77.416 C75.203035,77.5280006 75.2590345,77.679999 75.2590345,77.872 L75.2590345,85.392 C75.2590345,85.5733342 75.203035,85.7199994 75.0910345,85.832 C74.9790339,85.9440006 74.8323687,86 74.6510345,86 Z" id="nextmeditation" fill="#0073FF" fill-rule="nonzero"></path>
            </g>
        </g>
    </g>
</svg>