
<svg width="83px" height="89px" viewBox="0 0 83 89" version="1.1" xmlns="http://www.w3.org/2000/svg" xmlns:xlink="http://www.w3.org/1999/xlink">
    <g id="Page-1" stroke="none" stroke-width="1" fill="none" fill-rule="evenodd">
        <g id="Mobile" transform="translate(-155.000000, -370.000000)">
            <g id="&lt;&lt;" transform="translate(155.000000, 372.000000)">
                <g id="&lt;" transform="translate(16.000000, 0.000000)" stroke="#0073FF" stroke-width="3">
                    <circle id="Oval-Copy" cx="25" cy="25" r="25"></circle>
                    <polyline id="Path-7" transform="translate(25.209951, 25.127551) rotate(180.000000) translate(-25.209951, -25.127551) " points="17.3469388 14.7959184 33.0729637 25.2189814 17.3469388 35.4591837"></polyline>
                </g>
                <path d="M10.3009655,71.744 C10.1089646,71.744 9.95696608,71.6880006 9.84496552,71.576 C9.73296496,71.4639994 9.67696552,71.312001 9.67696552,71.12 L9.67696552,63.568 C9.68763224,62.7359958 9.88763024,61.98667 10.2769655,61.32 C10.6663008,60.65333 11.1942955,60.1280019 11.8609655,59.744 C12.5276355,59.3599981 13.2769614,59.168 14.1089655,59.168 C14.9623031,59.168 15.7249622,59.3626647 16.3969655,59.752 C17.0689689,60.1413353 17.5996302,60.6719966 17.9889655,61.344 C18.3783008,62.0160034 18.5729655,62.7786624 18.5729655,63.632 C18.5729655,64.4746709 18.3836341,65.2319966 18.0049655,65.904 C17.626297,66.5760034 17.1116354,67.1066647 16.4609655,67.496 C15.8102956,67.8853353 15.074303,68.08 14.2529655,68.08 C13.5382953,68.08 12.8903018,67.9280015 12.3089655,67.624 C11.7276293,67.3199985 11.2609673,66.9173358 10.9089655,66.416 L10.9089655,71.12 C10.9089655,71.312001 10.8529661,71.4639994 10.7409655,71.576 C10.628965,71.6880006 10.4822998,71.744 10.3009655,71.744 Z M14.1089655,66.96 C14.7276353,66.96 15.2822964,66.8160014 15.7729655,66.528 C16.2636346,66.2399986 16.6502974,65.8426692 16.9329655,65.336 C17.2156336,64.8293308 17.3569655,64.2613365 17.3569655,63.632 C17.3569655,62.9919968 17.2156336,62.4213358 16.9329655,61.92 C16.6502974,61.4186642 16.2636346,61.0213348 15.7729655,60.728 C15.2822964,60.4346652 14.7276353,60.288 14.1089655,60.288 C13.5009625,60.288 12.9516346,60.4346652 12.4609655,60.728 C11.9702964,61.0213348 11.5863002,61.4186642 11.3089655,61.92 C11.0316308,62.4213358 10.8929655,62.9919968 10.8929655,63.632 C10.8929655,64.2613365 11.0316308,64.8293308 11.3089655,65.336 C11.5863002,65.8426692 11.9702964,66.2399986 12.4609655,66.528 C12.9516346,66.8160014 13.5009625,66.96 14.1089655,66.96 Z M20.7837241,62.608 C20.8157243,61.9466634 20.9890559,61.3546693 21.3037241,60.832 C21.6183924,60.3093307 22.0290549,59.8986682 22.5357241,59.6 C23.0423933,59.3013318 23.6050544,59.152 24.2237241,59.152 C24.7143933,59.152 25.0930561,59.2213326 25.3597241,59.36 C25.6263921,59.4986674 25.7277245,59.701332 25.6637241,59.968 C25.6210573,60.1280008 25.549058,60.2346664 25.4477241,60.288 C25.3463903,60.3413336 25.2237249,60.3626667 25.0797241,60.352 L24.7668355,60.3306667 L24.7668355,60.3306667 L24.5917241,60.32 C23.9943878,60.2666664 23.4637265,60.3279991 22.9997241,60.504 C22.5357218,60.6800009 22.1677255,60.9493315 21.8957241,61.312 C21.6237228,61.6746685 21.4877241,62.1066642 21.4877241,62.608 L20.7837241,62.608 Z M20.8797241,68 C20.6877232,68 20.5383913,67.9466672 20.4317241,67.84 C20.3250569,67.7333328 20.2717241,67.584001 20.2717241,67.392 L20.2717241,59.856 C20.2717241,59.663999 20.3250569,59.5146672 20.4317241,59.408 C20.5383913,59.3013328 20.6877232,59.248 20.8797241,59.248 C21.0717251,59.248 21.2210569,59.3013328 21.3277241,59.408 C21.4343913,59.5146672 21.4877241,59.663999 21.4877241,59.856 L21.4877241,67.392 C21.4877241,67.584001 21.4343913,67.7333328 21.3277241,67.84 C21.2210569,67.9466672 21.0717251,68 20.8797241,68 Z M26.9718913,63.008 L32.8314414,63.008 C32.7902534,62.585033 32.684601,62.1957017 32.5144828,61.84 C32.2798149,61.3493309 31.9464849,60.9653347 31.5144828,60.688 C31.0824806,60.4106653 30.5678191,60.272 29.9704828,60.272 C29.3624797,60.272 28.8291517,60.4159986 28.3704828,60.704 C27.9118138,60.9920014 27.5571507,61.3893308 27.3064828,61.896 C27.1724974,62.1668215 27.074321,62.4582114 27.0119531,62.7701722 L26.9718913,63.008 L26.9718913,63.008 Z M26.9491769,64.032 C26.9960672,64.5212694 27.1311685,64.9639332 27.3544828,65.36 C27.6371508,65.8613358 28.0238136,66.2559986 28.5144828,66.544 C29.0051519,66.8320014 29.5704796,66.976 30.2104828,66.976 C30.5944847,66.976 30.9811475,66.909334 31.3704828,66.776 C31.759818,66.642666 32.0718149,66.4746677 32.3064828,66.272 C32.4238167,66.1759995 32.5571487,66.1253334 32.7064828,66.12 C32.8558168,66.1146666 32.9838156,66.1546662 33.0904828,66.24 C33.2291501,66.3680006 33.3011494,66.5066659 33.3064828,66.656 C33.3118161,66.8053341 33.2504834,66.9333328 33.1224828,67.04 C32.770481,67.3386682 32.3224855,67.5866657 31.7784828,67.784 C31.23448,67.9813343 30.7118186,68.08 30.2104828,68.08 C29.3464784,68.08 28.5811528,67.8906686 27.9144828,67.512 C27.2478128,67.1333314 26.7251513,66.6080034 26.3464828,65.936 C25.9678142,65.2639966 25.7784828,64.4960043 25.7784828,63.632 C25.7784828,62.757329 25.9571476,61.98667 26.3144828,61.32 C26.6718179,60.65333 27.1651463,60.1280019 27.7944828,59.744 C28.4238192,59.3599981 29.1491453,59.168 29.9704828,59.168 C30.7811535,59.168 31.4878131,59.3519982 32.0904828,59.72 C32.6931524,60.0880018 33.1598144,60.5973301 33.4904828,61.248 C33.8211511,61.8986699 33.9864828,62.6399958 33.9864828,63.472 C33.9864828,63.6426675 33.93315,63.7786662 33.8264828,63.88 C33.7198156,63.9813338 33.5811503,64.032 33.4104828,64.032 L26.9491769,64.032 L26.9491769,64.032 Z M38.0269151,66.2290686 L41.0612414,59.568 C41.1252417,59.4186659 41.2345739,59.3200002 41.3892414,59.272 C41.5439088,59.2239998 41.6959073,59.2319997 41.8452414,59.296 C41.9945755,59.370667 42.0959078,59.4799993 42.1492414,59.624 C42.202575,59.7680007 42.1972417,59.9039994 42.1332414,60.032 L38.6292414,67.584 C38.5012407,67.8613347 38.2985761,68 38.0212414,68 C37.7652401,68 37.573242,67.8613347 37.4452414,67.584 L33.8932414,60.048 C33.8292411,59.9093326 33.8239078,59.7706674 33.8772414,59.632 C33.930575,59.4933326 34.0372406,59.386667 34.1972414,59.312 C34.3465755,59.237333 34.490574,59.2266664 34.6292414,59.28 C34.7679087,59.3333336 34.8745743,59.4293326 34.9492414,59.568 L38.0269151,66.2290686 L38.0269151,66.2290686 Z M44.04,68 C43.847999,68 43.6960006,67.9440006 43.584,67.832 C43.4719994,67.7199994 43.416,67.568001 43.416,67.376 L43.416,59.872 C43.416,59.679999 43.4719994,59.5280006 43.584,59.416 C43.6960006,59.3039994 43.847999,59.248 44.04,59.248 C44.2213342,59.248 44.3679994,59.3039994 44.48,59.416 C44.5920006,59.5280006 44.648,59.679999 44.648,59.872 L44.648,67.376 C44.648,67.568001 44.5920006,67.7199994 44.48,67.832 C44.3679994,67.9440006 44.2213342,68 44.04,68 Z M44.024,57.584 C43.7893322,57.584 43.5866675,57.4986675 43.416,57.328 C43.2453325,57.1573325 43.16,56.9493346 43.16,56.704 C43.16,56.437332 43.2479991,56.2266674 43.424,56.072 C43.6000009,55.9173326 43.8053322,55.84 44.04,55.84 C44.2640011,55.84 44.4639991,55.9173326 44.64,56.072 C44.8160009,56.2266674 44.904,56.437332 44.904,56.704 C44.904,56.9493346 44.8186675,57.1573325 44.648,57.328 C44.4773325,57.4986675 44.2693346,57.584 44.024,57.584 Z M51.0507586,68.08 C50.197421,68.08 49.434762,67.8880019 48.7627586,67.504 C48.0907553,67.1199981 47.5627605,66.5920034 47.1787586,65.92 C46.7947567,65.2479966 46.6027586,64.4853376 46.6027586,63.632 C46.6027586,62.7679957 46.7947567,62.0000034 47.1787586,61.328 C47.5627605,60.6559966 48.0907553,60.1280019 48.7627586,59.744 C49.434762,59.3599981 50.197421,59.168 51.0507586,59.168 C51.9040962,59.168 52.6640886,59.3599981 53.3307586,59.744 C53.9974286,60.1280019 54.5227567,60.6559966 54.9067586,61.328 C55.2907605,62.0000034 55.4880919,62.7679957 55.4987586,63.632 C55.4987586,64.4853376 55.3040939,65.2479966 54.9147586,65.92 C54.5254233,66.5920034 53.9974286,67.1199981 53.3307586,67.504 C52.6640886,67.8880019 51.9040962,68.08 51.0507586,68.08 Z M51.0507586,66.96 C51.6694284,66.96 52.2240895,66.8160014 52.7147586,66.528 C53.2054277,66.2399986 53.5894239,65.8453358 53.8667586,65.344 C54.1440933,64.8426642 54.2827586,64.2720032 54.2827586,63.632 C54.2827586,62.9919968 54.1440933,62.4186692 53.8667586,61.912 C53.5894239,61.4053308 53.2054277,61.0080014 52.7147586,60.72 C52.2240895,60.4319986 51.6694284,60.288 51.0507586,60.288 C50.4320889,60.288 49.8774277,60.4319986 49.3867586,60.72 C48.8960895,61.0080014 48.5094267,61.4053308 48.2267586,61.912 C47.9440905,62.4186692 47.8027586,62.9919968 47.8027586,63.632 C47.8027586,64.2720032 47.9440905,64.8426642 48.2267586,65.344 C48.5094267,65.8453358 48.8960895,66.2399986 49.3867586,66.528 C49.8774277,66.8160014 50.4320889,66.96 51.0507586,66.96 Z M60.9895172,68.096 C60.2321801,68.096 59.5548536,67.9386682 58.9575172,67.624 C58.3601809,67.3093318 57.8881856,66.848003 57.5415172,66.24 C57.1948488,65.631997 57.0215172,64.890671 57.0215172,64.016 L57.0215172,59.856 C57.0215172,59.6853325 57.0801833,59.5413339 57.1975172,59.424 C57.3148512,59.3066661 57.4588497,59.248 57.6295172,59.248 C57.8108515,59.248 57.9601833,59.3066661 58.0775172,59.424 C58.1948512,59.5413339 58.2535172,59.6853325 58.2535172,59.856 L58.2535172,64.016 C58.2535172,64.6773366 58.3788493,65.2213312 58.6295172,65.648 C58.8801852,66.0746688 59.2215151,66.3946656 59.6535172,66.608 C60.0855194,66.8213344 60.5735145,66.928 61.1175172,66.928 C61.6401865,66.928 62.1121818,66.8266677 62.5335172,66.624 C62.9548527,66.4213323 63.2881827,66.1440018 63.5335172,65.792 C63.7788518,65.4399982 63.9015172,65.0400022 63.9015172,64.592 L64.7815172,64.592 C64.7495171,65.2640034 64.5655189,65.8639974 64.2295172,66.392 C63.8935156,66.9200026 63.4428534,67.3359985 62.8775172,67.64 C62.3121811,67.9440015 61.682854,68.096 60.9895172,68.096 Z M64.5095172,68 C64.328183,68 64.1815178,67.9440006 64.0695172,67.832 C63.9575167,67.7199994 63.9015172,67.568001 63.9015172,67.376 L63.9015172,59.856 C63.9015172,59.6746658 63.9575167,59.5280006 64.0695172,59.416 C64.1815178,59.3039994 64.328183,59.248 64.5095172,59.248 C64.6908515,59.248 64.8401833,59.3039994 64.9575172,59.416 C65.0748512,59.5280006 65.1335172,59.6746658 65.1335172,59.856 L65.1335172,67.376 C65.1335172,67.568001 65.0748512,67.7199994 64.9575172,67.832 C64.8401833,67.9440006 64.6908515,68 64.5095172,68 Z M70.3522759,68.08 C69.7229394,68.08 69.0989456,67.9733344 68.4802759,67.76 C67.8616061,67.5466656 67.3602778,67.2266688 66.9762759,66.8 C66.8589419,66.6719994 66.8109424,66.5280008 66.8322759,66.368 C66.8536093,66.2079992 66.9336085,66.0693339 67.0722759,65.952 C67.2216099,65.8453328 67.3762751,65.8026666 67.5362759,65.824 C67.6962767,65.8453334 67.8296087,65.9146661 67.9362759,66.032 C68.1922771,66.3306682 68.5309404,66.5599992 68.9522759,66.72 C69.3736113,66.8800008 69.8402733,66.96 70.3522759,66.96 C71.1416131,66.96 71.7122741,66.8240014 72.0642759,66.552 C72.4162776,66.2799986 72.5976091,65.9520019 72.6082759,65.568 C72.6082759,65.1839981 72.4269443,64.8666679 72.0642759,64.616 C71.7419039,64.3931841 71.2341224,64.2146176 70.5409189,64.0802964 L70.2722759,64.032 C69.1949371,63.8613325 68.4056117,63.5626688 67.9042759,63.136 C67.40294,62.7093312 67.1522759,62.2026696 67.1522759,61.616 C67.1522759,61.0719973 67.2962744,60.6186685 67.5842759,60.256 C67.8722773,59.8933315 68.2562735,59.6213342 68.7362759,59.44 C69.2162783,59.2586658 69.744273,59.168 70.3202759,59.168 C71.0349461,59.168 71.6509399,59.2906654 72.1682759,59.536 C72.6856118,59.7813346 73.1042743,60.1119979 73.4242759,60.528 C73.5309431,60.6666674 73.5736093,60.8106659 73.5522759,60.96 C73.5309424,61.1093341 73.4456099,61.2319995 73.2962759,61.328 C73.1682752,61.402667 73.02161,61.4266668 72.8562759,61.4 C72.6909417,61.3733332 72.5496098,61.2960006 72.4322759,61.168 C72.1656079,60.8586651 71.8562776,60.6320007 71.5042759,60.488 C71.1522741,60.3439993 70.7469448,60.272 70.2882759,60.272 C69.7016063,60.272 69.2322776,60.3919988 68.8802759,60.632 C68.5282741,60.8720012 68.3522759,61.1733315 68.3522759,61.536 C68.3522759,61.7813346 68.4189419,61.9946658 68.5522759,62.176 C68.6856099,62.3573342 68.9149409,62.5173326 69.2402759,62.656 C69.5191344,62.7748577 69.8939884,62.8780406 70.3648465,62.9655509 L70.6082759,63.008 C71.4082799,63.1360006 72.0402735,63.3253321 72.5042759,63.576 C72.9682782,63.8266679 73.2989415,64.1199983 73.4962759,64.456 C73.6936102,64.7920017 73.7922759,65.1573314 73.7922759,65.552 C73.7922759,66.0533358 73.6456107,66.4933314 73.3522759,66.872 C73.0589411,67.2506686 72.6536118,67.5466656 72.1362759,67.76 C71.6189399,67.9733344 71.0242792,68.08 70.3522759,68.08 Z M12.5622069,86 C12.3808727,86 12.2315408,85.9440006 12.1142069,85.832 C11.996873,85.7199994 11.9382069,85.5733342 11.9382069,85.392 L11.9382069,80.784 C11.9382069,80.0266629 11.7408755,79.4266689 11.3462069,78.984 C10.9515383,78.5413311 10.4448767,78.32 9.8262069,78.32 C9.16487026,78.32 8.62354234,78.5413311 8.2022069,78.984 C7.78087146,79.4266689 7.57554018,80.0159963 7.5862069,80.752 L6.4822069,80.752 C6.49287362,80.0373298 6.64753874,79.4080027 6.9462069,78.864 C7.24487506,78.3199973 7.65553762,77.8986682 8.1782069,77.6 C8.70087618,77.3013318 9.29287026,77.152 9.9542069,77.152 C10.5835434,77.152 11.1408711,77.3013318 11.6262069,77.6 C12.1115427,77.8986682 12.4902055,78.3199973 12.7622069,78.864 C13.0342083,79.4080027 13.1702069,80.0479963 13.1702069,80.784 L13.1702069,85.392 C13.1702069,85.5733342 13.1142075,85.7199994 13.0022069,85.832 C12.8902063,85.9440006 12.7435411,86 12.5622069,86 Z M1.3622069,86 C1.17020594,86 1.01820746,85.9440006 0.906206897,85.832 C0.794206337,85.7199994 0.738206897,85.5733342 0.738206897,85.392 L0.738206897,77.872 C0.738206897,77.6906658 0.794206337,77.5413339 0.906206897,77.424 C1.01820746,77.3066661 1.17020594,77.248 1.3622069,77.248 C1.54354114,77.248 1.69020634,77.3066661 1.8022069,77.424 C1.91420746,77.5413339 1.9702069,77.6906658 1.9702069,77.872 L1.9702069,85.392 C1.9702069,85.5733342 1.91420746,85.7199994 1.8022069,85.832 C1.69020634,85.9440006 1.54354114,86 1.3622069,86 Z M6.9782069,86 C6.79687266,86 6.64754082,85.9440006 6.5302069,85.832 C6.41287298,85.7199994 6.3542069,85.5733342 6.3542069,85.392 L6.3542069,80.784 C6.3542069,80.0266629 6.15687554,79.4266689 5.7622069,78.984 C5.36753826,78.5413311 4.86087666,78.32 4.2422069,78.32 C3.58087026,78.32 3.0368757,78.5359978 2.6102069,78.968 C2.1835381,79.4000022 1.9702069,79.9626632 1.9702069,80.656 L1.0902069,80.656 C1.11154034,79.9733299 1.26353882,79.3680026 1.5462069,78.84 C1.82887498,78.3119974 2.21553778,77.8986682 2.7062069,77.6 C3.19687602,77.3013318 3.75153714,77.152 4.3702069,77.152 C4.99954338,77.152 5.55687114,77.3013318 6.0422069,77.6 C6.52754266,77.8986682 6.90620554,78.3199973 7.1782069,78.864 C7.45020826,79.4080027 7.5862069,80.0479963 7.5862069,80.784 L7.5862069,85.392 C7.5862069,85.5733342 7.53020746,85.7199994 7.4182069,85.832 C7.30620634,85.9440006 7.15954114,86 6.9782069,86 Z M15.9023741,81.008 L21.7619241,81.008 C21.7207362,80.585033 21.6150837,80.1957017 21.4449655,79.84 C21.2102977,79.3493309 20.8769677,78.9653347 20.4449655,78.688 C20.0129634,78.4106653 19.4983018,78.272 18.9009655,78.272 C18.2929625,78.272 17.7596345,78.4159986 17.3009655,78.704 C16.8422966,78.9920014 16.4876334,79.3893308 16.2369655,79.896 C16.1029801,80.1668215 16.0048038,80.4582114 15.9424359,80.7701722 L15.9023741,81.008 L15.9023741,81.008 Z M15.8796597,82.032 C15.92655,82.5212694 16.0616513,82.9639332 16.2849655,83.36 C16.5676336,83.8613358 16.9542964,84.2559986 17.4449655,84.544 C17.9356346,84.8320014 18.5009623,84.976 19.1409655,84.976 C19.5249674,84.976 19.9116302,84.909334 20.3009655,84.776 C20.6903008,84.642666 21.0022977,84.4746677 21.2369655,84.272 C21.3542994,84.1759995 21.4876314,84.1253334 21.6369655,84.12 C21.7862996,84.1146666 21.9142983,84.1546662 22.0209655,84.24 C22.1596329,84.3680006 22.2316322,84.5066659 22.2369655,84.656 C22.2422989,84.8053341 22.1809662,84.9333328 22.0529655,85.04 C21.7009638,85.3386682 21.2529682,85.5866657 20.7089655,85.784 C20.1649628,85.9813343 19.6423014,86.08 19.1409655,86.08 C18.2769612,86.08 17.5116355,85.8906686 16.8449655,85.512 C16.1782955,85.1333314 15.6556341,84.6080034 15.2769655,83.936 C14.898297,83.2639966 14.7089655,82.4960043 14.7089655,81.632 C14.7089655,80.757329 14.8876304,79.98667 15.2449655,79.32 C15.6023006,78.65333 16.095629,78.1280019 16.7249655,77.744 C17.354302,77.3599981 18.0796281,77.168 18.9009655,77.168 C19.7116362,77.168 20.4182958,77.3519982 21.0209655,77.72 C21.6236352,78.0880018 22.0902972,78.5973301 22.4209655,79.248 C22.7516338,79.8986699 22.9169655,80.6399958 22.9169655,81.472 C22.9169655,81.6426675 22.8636327,81.7786662 22.7569655,81.88 C22.6502983,81.9813338 22.511633,82.032 22.3409655,82.032 L15.8796597,82.032 L15.8796597,82.032 Z M27.9437241,86.08 C27.1010533,86.08 26.3437275,85.8853353 25.6717241,85.496 C24.9997208,85.1066647 24.4690594,84.5760034 24.0797241,83.904 C23.6903889,83.2319966 23.4957241,82.4693376 23.4957241,81.616 C23.4957241,80.7733291 23.6850556,80.0160034 24.0637241,79.344 C24.4423927,78.6719966 24.9570542,78.1413353 25.6077241,77.752 C26.2583941,77.3626647 26.9943867,77.168 27.8157241,77.168 C28.5303944,77.168 29.1757213,77.3199985 29.7517241,77.624 C30.327727,77.9280015 30.7917224,78.3306642 31.1437241,78.832 L31.1437241,74.128 C31.1437241,73.935999 31.2023902,73.7840006 31.3197241,73.672 C31.4370581,73.5599994 31.5863899,73.504 31.7677241,73.504 C31.9490584,73.504 32.0983902,73.5599994 32.2157241,73.672 C32.3330581,73.7840006 32.3917241,73.935999 32.3917241,74.128 L32.3917241,81.68 C32.3703907,82.5120042 32.1650594,83.26133 31.7757241,83.928 C31.3863889,84.59467 30.8583941,85.1199981 30.1917241,85.504 C29.5250541,85.8880019 28.7757283,86.08 27.9437241,86.08 Z M27.9437241,84.96 C28.5623939,84.96 29.1143884,84.8133348 29.5997241,84.52 C30.0850599,84.2266652 30.4690561,83.8293358 30.7517241,83.328 C31.0343922,82.8266642 31.1757241,82.2560032 31.1757241,81.616 C31.1757241,80.9866635 31.0343922,80.4186692 30.7517241,79.912 C30.4690561,79.4053308 30.0850599,79.0080014 29.5997241,78.72 C29.1143884,78.4319986 28.5623939,78.288 27.9437241,78.288 C27.3357211,78.288 26.7863933,78.4319986 26.2957241,78.72 C25.805055,79.0080014 25.4157256,79.4053308 25.1277241,79.912 C24.8397227,80.4186692 24.6957241,80.9866635 24.6957241,81.616 C24.6957241,82.2560032 24.8397227,82.8266642 25.1277241,83.328 C25.4157256,83.8293358 25.805055,84.2266652 26.2957241,84.52 C26.7863933,84.8133348 27.3357211,84.96 27.9437241,84.96 Z M35.4344828,86 C35.2424818,86 35.0904833,85.9440006 34.9784828,85.832 C34.8664822,85.7199994 34.8104828,85.568001 34.8104828,85.376 L34.8104828,77.872 C34.8104828,77.679999 34.8664822,77.5280006 34.9784828,77.416 C35.0904833,77.3039994 35.2424818,77.248 35.4344828,77.248 C35.615817,77.248 35.7624822,77.3039994 35.8744828,77.416 C35.9864833,77.5280006 36.0424828,77.679999 36.0424828,77.872 L36.0424828,85.376 C36.0424828,85.568001 35.9864833,85.7199994 35.8744828,85.832 C35.7624822,85.9440006 35.615817,86 35.4344828,86 Z M35.4184828,75.584 C35.1838149,75.584 34.9811503,75.4986675 34.8104828,75.328 C34.6398152,75.1573325 34.5544828,74.9493346 34.5544828,74.704 C34.5544828,74.437332 34.6424819,74.2266674 34.8184828,74.072 C34.9944836,73.9173326 35.1998149,73.84 35.4344828,73.84 C35.6584839,73.84 35.8584819,73.9173326 36.0344828,74.072 C36.2104836,74.2266674 36.2984828,74.437332 36.2984828,74.704 C36.2984828,74.9493346 36.2131503,75.1573325 36.0424828,75.328 C35.8718152,75.4986675 35.6638173,75.584 35.4184828,75.584 Z M41.8852414,86 C41.3199052,86 40.8159103,85.866668 40.3732414,85.6 C39.9305725,85.333332 39.5812427,84.9680023 39.3252414,84.504 C39.0692401,84.0399977 38.9412414,83.5093363 38.9412414,82.912 L38.9412414,75.088 C38.9412414,74.9066658 38.9972408,74.7573339 39.1092414,74.64 C39.2212419,74.5226661 39.3679071,74.464 39.5492414,74.464 C39.7305756,74.464 39.8799075,74.5226661 39.9972414,74.64 C40.1145753,74.7573339 40.1732414,74.9066658 40.1732414,75.088 L40.1732414,82.912 C40.1732414,83.4560027 40.3332398,83.9013316 40.6532414,84.248 C40.973243,84.5946684 41.3839055,84.768 41.8852414,84.768 L42.3172414,84.768 C42.4879089,84.768 42.6265742,84.8266661 42.7332414,84.944 C42.8399086,85.0613339 42.8932414,85.2106658 42.8932414,85.392 C42.8932414,85.5733342 42.829242,85.7199994 42.7012414,85.832 C42.5732407,85.9440006 42.4132423,86 42.2212414,86 L41.8852414,86 Z M37.9012414,78.64 C37.7412406,78.64 37.6079086,78.5893338 37.5012414,78.488 C37.3945742,78.3866662 37.3412414,78.2613341 37.3412414,78.112 C37.3412414,77.9519992 37.3945742,77.8213338 37.5012414,77.72 C37.6079086,77.6186662 37.7412406,77.568 37.9012414,77.568 L41.9812414,77.568 C42.1412422,77.568 42.2745742,77.6186662 42.3812414,77.72 C42.4879086,77.8213338 42.5412414,77.9519992 42.5412414,78.112 C42.5412414,78.2613341 42.4879086,78.3866662 42.3812414,78.488 C42.2745742,78.5893338 42.1412422,78.64 41.9812414,78.64 L37.9012414,78.64 Z M48.032,86.08 C47.2106626,86.08 46.4746699,85.8853353 45.824,85.496 C45.1733301,85.1066647 44.6586686,84.5760034 44.28,83.904 C43.9013314,83.2319966 43.712,82.4746709 43.712,81.632 C43.712,80.7786624 43.9066647,80.0160034 44.296,79.344 C44.6853353,78.6719966 45.2159966,78.1413353 45.888,77.752 C46.5600034,77.3626647 47.3173291,77.168 48.16,77.168 C49.0026709,77.168 49.75733,77.3626647 50.424,77.752 C51.09067,78.1413353 51.6186647,78.6719966 52.008,79.344 C52.3973353,80.0160034 52.5973333,80.7786624 52.608,81.632 L52.112,82.016 C52.112,82.7840038 51.9333351,83.4746636 51.576,84.088 C51.2186649,84.7013364 50.7333364,85.1866649 50.12,85.544 C49.5066636,85.9013351 48.8106706,86.08 48.032,86.08 Z M48.16,84.96 C48.7786698,84.96 49.3306642,84.8160014 49.816,84.528 C50.3013358,84.2399986 50.6853319,83.8426692 50.968,83.336 C51.2506681,82.8293308 51.392,82.2613365 51.392,81.632 C51.392,80.9919968 51.2506681,80.4213358 50.968,79.92 C50.6853319,79.4186642 50.3013358,79.0213348 49.816,78.728 C49.3306642,78.4346652 48.7786698,78.288 48.16,78.288 C47.551997,78.288 47.0026691,78.4346652 46.512,78.728 C46.0213309,79.0213348 45.6320014,79.4186642 45.344,79.92 C45.0559986,80.4213358 44.912,80.9919968 44.912,81.632 C44.912,82.2613365 45.0559986,82.8293308 45.344,83.336 C45.6320014,83.8426692 46.0213309,84.2399986 46.512,84.528 C47.0026691,84.8160014 47.551997,84.96 48.16,84.96 Z M51.984,86 C51.8026658,86 51.6533339,85.9440006 51.536,85.832 C51.4186661,85.7199994 51.36,85.5733342 51.36,85.392 L51.36,82.656 L51.664,81.392 L52.608,81.632 L52.608,85.392 C52.608,85.5733342 52.5493339,85.7199994 52.432,85.832 C52.3146661,85.9440006 52.1653342,86 51.984,86 Z M57.7147586,86 C57.1494225,86 56.6454275,85.866668 56.2027586,85.6 C55.7600897,85.333332 55.4107599,84.9680023 55.1547586,84.504 C54.8987573,84.0399977 54.7707586,83.5093363 54.7707586,82.912 L54.7707586,75.088 C54.7707586,74.9066658 54.8267581,74.7573339 54.9387586,74.64 C55.0507592,74.5226661 55.1974244,74.464 55.3787586,74.464 C55.5600929,74.464 55.7094247,74.5226661 55.8267586,74.64 C55.9440925,74.7573339 56.0027586,74.9066658 56.0027586,75.088 L56.0027586,82.912 C56.0027586,83.4560027 56.162757,83.9013316 56.4827586,84.248 C56.8027602,84.5946684 57.2134228,84.768 57.7147586,84.768 L58.1467586,84.768 C58.3174261,84.768 58.4560914,84.8266661 58.5627586,84.944 C58.6694258,85.0613339 58.7227586,85.2106658 58.7227586,85.392 C58.7227586,85.5733342 58.6587593,85.7199994 58.5307586,85.832 C58.402758,85.9440006 58.2427596,86 58.0507586,86 L57.7147586,86 Z M53.7307586,78.64 C53.5707578,78.64 53.4374258,78.5893338 53.3307586,78.488 C53.2240914,78.3866662 53.1707586,78.2613341 53.1707586,78.112 C53.1707586,77.9519992 53.2240914,77.8213338 53.3307586,77.72 C53.4374258,77.6186662 53.5707578,77.568 53.7307586,77.568 L57.8107586,77.568 C57.9707594,77.568 58.1040914,77.6186662 58.2107586,77.72 C58.3174258,77.8213338 58.3707586,77.9519992 58.3707586,78.112 C58.3707586,78.2613341 58.3174258,78.3866662 58.2107586,78.488 C58.1040914,78.5893338 57.9707594,78.64 57.8107586,78.64 L53.7307586,78.64 Z M60.8855172,86 C60.6935163,86 60.5415178,85.9440006 60.4295172,85.832 C60.3175167,85.7199994 60.2615172,85.568001 60.2615172,85.376 L60.2615172,77.872 C60.2615172,77.679999 60.3175167,77.5280006 60.4295172,77.416 C60.5415178,77.3039994 60.6935163,77.248 60.8855172,77.248 C61.0668515,77.248 61.2135167,77.3039994 61.3255172,77.416 C61.4375178,77.5280006 61.4935172,77.679999 61.4935172,77.872 L61.4935172,85.376 C61.4935172,85.568001 61.4375178,85.7199994 61.3255172,85.832 C61.2135167,85.9440006 61.0668515,86 60.8855172,86 Z M60.8695172,75.584 C60.6348494,75.584 60.4321848,75.4986675 60.2615172,75.328 C60.0908497,75.1573325 60.0055172,74.9493346 60.0055172,74.704 C60.0055172,74.437332 60.0935164,74.2266674 60.2695172,74.072 C60.4455181,73.9173326 60.6508494,73.84 60.8855172,73.84 C61.1095184,73.84 61.3095164,73.9173326 61.4855172,74.072 C61.6615181,74.2266674 61.7495172,74.437332 61.7495172,74.704 C61.7495172,74.9493346 61.6641848,75.1573325 61.4935172,75.328 C61.3228497,75.4986675 61.1148518,75.584 60.8695172,75.584 Z M67.8962759,86.08 C67.0429383,86.08 66.2802792,85.8880019 65.6082759,85.504 C64.9362725,85.1199981 64.4082778,84.5920034 64.0242759,83.92 C63.6402739,83.2479966 63.4482759,82.4853376 63.4482759,81.632 C63.4482759,80.7679957 63.6402739,80.0000034 64.0242759,79.328 C64.4082778,78.6559966 64.9362725,78.1280019 65.6082759,77.744 C66.2802792,77.3599981 67.0429383,77.168 67.8962759,77.168 C68.7496135,77.168 69.5096059,77.3599981 70.1762759,77.744 C70.8429459,78.1280019 71.3682739,78.6559966 71.7522759,79.328 C72.1362778,80.0000034 72.3336091,80.7679957 72.3442759,81.632 C72.3442759,82.4853376 72.1496111,83.2479966 71.7602759,83.92 C71.3709406,84.5920034 70.8429459,85.1199981 70.1762759,85.504 C69.5096059,85.8880019 68.7496135,86.08 67.8962759,86.08 Z M67.8962759,84.96 C68.5149456,84.96 69.0696067,84.8160014 69.5602759,84.528 C70.050945,84.2399986 70.4349411,83.8453358 70.7122759,83.344 C70.9896106,82.8426642 71.1282759,82.2720032 71.1282759,81.632 C71.1282759,80.9919968 70.9896106,80.4186692 70.7122759,79.912 C70.4349411,79.4053308 70.050945,79.0080014 69.5602759,78.72 C69.0696067,78.4319986 68.5149456,78.288 67.8962759,78.288 C67.2776061,78.288 66.722945,78.4319986 66.2322759,78.72 C65.7416067,79.0080014 65.3549439,79.4053308 65.0722759,79.912 C64.7896078,80.4186692 64.6482759,80.9919968 64.6482759,81.632 C64.6482759,82.2720032 64.7896078,82.8426642 65.0722759,83.344 C65.3549439,83.8453358 65.7416067,84.2399986 66.2322759,84.528 C66.722945,84.8160014 67.2776061,84.96 67.8962759,84.96 Z M81.5310345,86 C81.3497002,86 81.2003684,85.9413339 81.0830345,85.824 C80.9657006,85.7066661 80.9070345,85.5626675 80.9070345,85.392 L80.9070345,81.232 C80.9070345,80.5706634 80.7817024,80.0266688 80.5310345,79.6 C80.2803666,79.1733312 79.9390366,78.8533344 79.5070345,78.64 C79.0750323,78.4266656 78.5870372,78.32 78.0430345,78.32 C77.5203652,78.32 77.0483699,78.4213323 76.6270345,78.624 C76.205699,78.8266677 75.872369,79.1039982 75.6270345,79.456 C75.3816999,79.8080018 75.2590345,80.2079978 75.2590345,80.656 L74.3790345,80.656 C74.4003679,79.9839966 74.5816994,79.3840026 74.9230345,78.856 C75.2643695,78.3279974 75.7176983,77.9120015 76.2830345,77.608 C76.8483706,77.3039985 77.4776977,77.152 78.1710345,77.152 C78.9283716,77.152 79.6056982,77.3093318 80.2030345,77.624 C80.8003708,77.9386682 81.2723661,78.399997 81.6190345,79.008 C81.9657029,79.616003 82.1390345,80.357329 82.1390345,81.232 L82.1390345,85.392 C82.1390345,85.5626675 82.0803684,85.7066661 81.9630345,85.824 C81.8457006,85.9413339 81.701702,86 81.5310345,86 Z M74.6510345,86 C74.4590335,86 74.307035,85.9440006 74.1950345,85.832 C74.0830339,85.7199994 74.0270345,85.5733342 74.0270345,85.392 L74.0270345,77.872 C74.0270345,77.679999 74.0830339,77.5280006 74.1950345,77.416 C74.307035,77.3039994 74.4590335,77.248 74.6510345,77.248 C74.8323687,77.248 74.9790339,77.3039994 75.0910345,77.416 C75.203035,77.5280006 75.2590345,77.679999 75.2590345,77.872 L75.2590345,85.392 C75.2590345,85.5733342 75.203035,85.7199994 75.0910345,85.832 C74.9790339,85.9440006 74.8323687,86 74.6510345,86 Z" id="previousmeditation" fill="#0073FF" fill-rule="nonzero"></path>
            </g>
        </g>
    </g>
</svg>