<svg width="130px" height="57px" viewBox="0 0 130 57" version="1.1" xmlns="http://www.w3.org/2000/svg" xmlns:xlink="http://www.w3.org/1999/xlink">
    <g id="Page-1" stroke="none" stroke-width="1" fill="none" fill-rule="evenodd">
        <g id="Mobile" transform="translate(-83.000000, -511.000000)">
            <g id="START" transform="translate(85.000000, 513.000000)">
                <rect id="Rectangle" stroke="#0073FF" stroke-width="3" x="0" y="0" width="126" height="53" rx="22.5"></rect>
                <polyline id="Path-7" stroke="#0073FF" stroke-width="3" points="92 16 107.726025 26.423063 92 36.6632653"></polyline>
                <path d="M23.5425172,34.22 C22.6038459,34.22 21.7348546,34.0843347 20.9355172,33.813 C20.1361799,33.5416653 19.4431868,33.1566692 18.8565172,32.658 C18.2698476,32.1593308 17.8225188,31.5800033 17.5145172,30.92 C17.3971833,30.6853322 17.3935167,30.469001 17.5035172,30.271 C17.6135178,30.072999 17.8005159,29.9373337 18.0645172,29.864 C18.2698516,29.805333 18.4715163,29.8273328 18.6695172,29.93 C18.827918,30.0121337 18.9558106,30.1271195 19.0531971,30.2749597 L19.1205172,30.392 C19.3405183,30.8173355 19.6631818,31.198665 20.0885172,31.536 C20.5138527,31.873335 21.0198476,32.1336657 21.6065172,32.317 C22.1931868,32.5003343 22.8385137,32.592 23.5425172,32.592 C24.3198545,32.592 25.0091809,32.463668 25.6105172,32.207 C26.2118536,31.9503321 26.6848489,31.5763358 27.0295172,31.085 C27.3741856,30.5936642 27.5465172,29.9960035 27.5465172,29.292 C27.5465172,28.3973289 27.2165205,27.6273366 26.5565172,26.982 C25.943657,26.3827589 25.008329,25.9858643 23.7505083,25.7913062 L23.4545172,25.75 C21.7385087,25.5446656 20.3965221,25.0130043 19.4285172,24.155 C18.4605124,23.2969957 17.9765172,22.2446729 17.9765172,20.998 C17.9765172,20.1033289 18.2148482,19.3260033 18.6915172,18.666 C19.1681863,18.0059967 19.8245131,17.4963351 20.6605172,17.137 C21.4965214,16.7776649 22.4571785,16.598 23.5425172,16.598 C24.3491879,16.598 25.0825139,16.726332 25.7425172,16.983 C26.4025205,17.239668 26.9781815,17.5769979 27.4695172,17.995 C27.960853,18.4130021 28.3605157,18.8713308 28.6685172,19.37 C28.8151846,19.6046678 28.8628508,19.8319989 28.8115172,20.052 C28.7601837,20.2720011 28.6318516,20.4406661 28.4265172,20.558 C28.2065161,20.6606672 27.9828517,20.6753337 27.7555172,20.602 C27.5736497,20.543333 27.4269839,20.4424272 27.3155174,20.2992804 L27.2385172,20.184 C27.0185161,19.846665 26.7435189,19.5276682 26.4135172,19.227 C26.0835156,18.9263318 25.6838529,18.6880009 25.2145172,18.512 C24.7451816,18.3359991 24.1805205,18.2406667 23.5205172,18.226 C22.3618448,18.226 21.4305208,18.4716642 20.7265172,18.963 C20.0225137,19.4543358 19.6705172,20.1693286 19.6705172,21.108 C19.6705172,21.6066692 19.8025159,22.0649979 20.0665172,22.483 C20.3305186,22.9010021 20.7668475,23.2603318 21.3755172,23.561 C21.916557,23.8282606 22.6227237,24.0346787 23.4940345,24.1802591 L23.8285172,24.232 C25.6618597,24.4960013 27.0221795,25.0569957 27.9095172,25.915 C28.796855,26.7730043 29.2405172,27.8913264 29.2405172,29.27 C29.2405172,30.062004 29.0975187,30.7659969 28.8115172,31.382 C28.5255158,31.9980031 28.1221865,32.5149979 27.6015172,32.933 C27.080848,33.3510021 26.4721874,33.6699989 25.7755172,33.89 C25.0788471,34.1100011 24.3345212,34.22 23.5425172,34.22 Z M35.9543103,34 C35.7196425,34 35.5179779,33.9156675 35.3493103,33.747 C35.1806428,33.5783325 35.0963103,33.3766678 35.0963103,33.142 L35.0963103,16.818 L36.8123103,16.818 L36.8123103,33.142 C36.8123103,33.3766678 36.7316445,33.5783325 36.5703103,33.747 C36.4089762,33.9156675 36.2036449,34 35.9543103,34 Z M29.8823103,18.38 C29.6476425,18.38 29.4569777,18.3066674 29.3103103,18.16 C29.1636429,18.0133326 29.0903103,17.8300011 29.0903103,17.61 C29.0903103,17.3753322 29.1636429,17.1846674 29.3103103,17.038 C29.4569777,16.8913326 29.6476425,16.818 29.8823103,16.818 L42.0483103,16.818 C42.2829782,16.818 42.4736429,16.8913326 42.6203103,17.038 C42.7669777,17.1846674 42.8403103,17.3753322 42.8403103,17.61 C42.8403103,17.8300011 42.7669777,18.0133326 42.6203103,18.16 C42.4736429,18.3066674 42.2829782,18.38 42.0483103,18.38 L29.8823103,18.38 Z M48.2218679,19.6220833 L42.4701034,33.472 C42.3967697,33.6480009 42.2904375,33.7799996 42.1511034,33.868 C42.0117694,33.9560004 41.8541043,34 41.6781034,34 C41.3407684,34 41.0987708,33.8606681 40.9521034,33.582 C40.805436,33.3033319 40.7907695,33.0320013 40.9081034,32.768 L47.3761034,17.412 C47.5374376,17.015998 47.8161015,16.818 48.2121034,16.818 C48.5934387,16.818 48.8647693,17.015998 49.0261034,17.412 L55.5161034,32.79 C55.6481041,33.0686681 55.629771,33.3399987 55.4611034,33.604 C55.2924359,33.8680013 55.054105,34 54.7461034,34 C54.5701026,34 54.4124375,33.9560004 54.2731034,33.868 C54.1337694,33.7799996 54.0201039,33.6480009 53.9321034,33.472 L48.2218679,19.6220833 Z M43.1301034,29.908 L43.7901034,28.434 L52.7221034,28.434 L53.3821034,29.908 L43.1301034,29.908 Z M57.9618966,34 C57.712562,34 57.5072307,33.9193341 57.3458966,33.758 C57.1845624,33.5966659 57.1038966,33.3913346 57.1038966,33.142 L57.1038966,17.676 C57.1038966,17.4266654 57.1845624,17.2213341 57.3458966,17.06 C57.5072307,16.8986659 57.712562,16.818 57.9618966,16.818 L62.0758966,16.818 C63.1465686,16.818 64.0998924,17.0416644 64.9358966,17.489 C65.7719007,17.9363356 66.4282275,18.5596627 66.9048966,19.359 C67.3815656,20.1583373 67.6198966,21.0786615 67.6198966,22.12 C67.6198966,23.1173383 67.3815656,24.0046628 66.9048966,24.782 C66.4282275,25.5593372 65.7719007,26.1679978 64.9358966,26.608 C64.0998924,27.0480022 63.1465686,27.268 62.0758966,27.268 L58.8198966,27.268 L58.8198966,33.142 C58.8198966,33.3913346 58.7392307,33.5966659 58.5778966,33.758 C58.4165624,33.9193341 58.2112311,34 57.9618966,34 Z M67.1578966,34 C66.9672289,34 66.8168971,33.9633337 66.7068966,33.89 C66.596896,33.8166663 66.497897,33.7066674 66.4098966,33.56 L62.1858966,26.828 L63.9018966,26.388 L67.8398966,32.68 C68.0598977,33.0320018 68.1002306,33.3399987 67.9608966,33.604 C67.8215625,33.8680013 67.5538985,34 67.1578966,34 Z M58.8198966,25.618 L62.0758966,25.618 C62.8239003,25.618 63.4875603,25.4676682 64.0668966,25.167 C64.6462328,24.8663318 65.1045615,24.4520026 65.4418966,23.924 C65.7792316,23.3959974 65.9478966,22.79467 65.9478966,22.12 C65.9478966,21.4013297 65.7792316,20.7670028 65.4418966,20.217 C65.1045615,19.6669973 64.6462328,19.2380015 64.0668966,18.93 C63.4875603,18.6219985 62.8239003,18.468 62.0758966,18.468 L58.8198966,18.468 L58.8198966,25.618 Z M74.7076897,34 C74.4730218,34 74.2713572,33.9156675 74.1026897,33.747 C73.9340221,33.5783325 73.8496897,33.3766678 73.8496897,33.142 L73.8496897,16.818 L75.5656897,16.818 L75.5656897,33.142 C75.5656897,33.3766678 75.4850238,33.5783325 75.3236897,33.747 C75.1623555,33.9156675 74.9570242,34 74.7076897,34 Z M68.6356897,18.38 C68.4010218,18.38 68.2103571,18.3066674 68.0636897,18.16 C67.9170223,18.0133326 67.8436897,17.8300011 67.8436897,17.61 C67.8436897,17.3753322 67.9170223,17.1846674 68.0636897,17.038 C68.2103571,16.8913326 68.4010218,16.818 68.6356897,16.818 L80.8016897,16.818 C81.0363575,16.818 81.2270223,16.8913326 81.3736897,17.038 C81.5203571,17.1846674 81.5936897,17.3753322 81.5936897,17.61 C81.5936897,17.8300011 81.5203571,18.0133326 81.3736897,18.16 C81.2270223,18.3066674 81.0363575,18.38 80.8016897,18.38 L68.6356897,18.38 Z" fill="#0073FF" fill-rule="nonzero"></path>
            </g>
        </g>
    </g>
</svg>