
<svg width="68px" height="30px" viewBox="0 0 68 30" version="1.1" xmlns="http://www.w3.org/2000/svg" xmlns:xlink="http://www.w3.org/1999/xlink">
    <g id="Page-1" stroke="none" stroke-width="1" fill="none" fill-rule="evenodd">
        <g id="Mobile" transform="translate(-151.000000, -510.000000)">
            <g id="START" transform="translate(150.000000, 512.000000)">
                <polyline id="Path-7" stroke="#383B3A" stroke-width="3" points="46 0 66.2923964 13.4496115 46 26.663265"></polyline>
                <path d="M4.329,18.288 C3.56699619,18.288 2.89500291,18.1035018 2.313,17.7345 C1.73099709,17.3654982 1.27800162,16.8420034 0.954,16.164 L1.656,15.408 C1.94400144,15.9960029 2.31899769,16.4534984 2.781,16.7805 C3.24300231,17.1075016 3.75599718,17.271 4.32,17.271 C4.69800189,17.271 5.04449843,17.1930008 5.3595,17.037 C5.67450158,16.8809992 5.92649906,16.6575015 6.1155,16.3665 C6.30450095,16.0754985 6.399,15.729002 6.399,15.327 C6.399,14.9609982 6.31050089,14.673001 6.1335,14.463 C5.95649911,14.2529989 5.6985017,14.0715008 5.3595,13.9185 C5.02049831,13.7654992 4.59900252,13.593001 4.095,13.401 C3.70499805,13.2449992 3.32700183,13.068001 2.961,12.87 C2.59499817,12.671999 2.29350119,12.4215015 2.0565,12.1185 C1.81949882,11.8154985 1.701,11.4300023 1.701,10.962 C1.701,10.4879976 1.82699874,10.0665018 2.079,9.6975 C2.33100126,9.32849815 2.67899778,9.03750106 3.123,8.8245 C3.56700222,8.61149894 4.07099718,8.505 4.635,8.505 C5.15100258,8.505 5.63549774,8.61599889 6.0885,8.838 C6.54150227,9.06000111 6.9479982,9.37499796 7.308,9.783 L6.705,10.548 C6.15299724,9.82199637 5.46600411,9.459 4.644,9.459 C4.13999748,9.459 3.73050158,9.59099868 3.4155,9.855 C3.10049843,10.1190013 2.943,10.4639979 2.943,10.89 C2.943,11.1960015 3.04199901,11.450999 3.24,11.655 C3.43800099,11.859001 3.6974984,12.0329993 4.0185,12.177 C4.23250107,12.2730005 4.45783322,12.369 4.69449953,12.4649998 L5.058,12.609 C5.5980027,12.813001 6.06749801,13.016999 6.4665,13.221 C6.865502,13.425001 7.17599889,13.6844984 7.398,13.9995 C7.62000111,14.3145016 7.731,14.7419973 7.731,15.282 C7.731,15.9000031 7.58700144,16.4339977 7.299,16.884 C7.01099856,17.3340023 6.61050257,17.6804988 6.0975,17.9235 C5.58449744,18.1665012 4.99500333,18.288 4.329,18.288 Z M12.1801034,18.288 C11.4901,18.288 10.9546054,18.0555023 10.5736034,17.5905 C10.1926015,17.1254977 10.0021034,16.4700042 10.0021034,15.624 L10.0021034,9.774 L9.06610345,9.774 L9.06610345,8.784 L10.0021034,8.784 L10.0021034,5.337 L11.3161034,5.337 L11.3161034,8.784 L13.6111034,8.784 L13.6111034,9.774 L11.3161034,9.774 L11.3161034,15.552 C11.3161034,16.0620025 11.4151025,16.4519987 11.6131034,16.722 C11.8111044,16.9920013 12.0931016,17.127 12.4591034,17.127 C12.8131052,17.127 13.1251021,17.028001 13.3951034,16.83 L13.7281034,17.874 C13.5241024,18.0000006 13.2841048,18.1004996 13.0081034,18.1755 C12.7321021,18.2505004 12.4561048,18.288 12.1801034,18.288 Z M19.6892069,18.288 C18.8252026,18.288 18.0467104,18.0765021 17.3537069,17.6535 C16.6607034,17.2304979 16.1117089,16.6500037 15.7067069,15.912 C15.3017049,15.1739963 15.0992069,14.3310047 15.0992069,13.383 C15.0992069,12.4469953 15.2987049,11.6115037 15.6977069,10.8765 C16.0967089,10.1414963 16.6427034,9.56100213 17.3357069,9.135 C18.0287104,8.70899787 18.8132025,8.496 19.6892069,8.496 C20.5232111,8.496 21.2792035,8.69099805 21.9572069,9.081 C22.6352103,9.47100195 23.1512051,10.0109965 23.5052069,10.701 L23.5052069,8.784 L24.8192069,8.784 L24.8192069,18 L23.5052069,18 L23.5052069,16.056 C23.1092049,16.7520035 22.5782102,17.297998 21.9122069,17.694 C21.2462036,18.090002 20.505211,18.288 19.6892069,18.288 Z M20.0132069,17.145 C20.7032103,17.145 21.3137042,16.9845016 21.8447069,16.6635 C22.3757096,16.3424984 22.7942054,15.8985028 23.1002069,15.3315 C23.4062084,14.7644972 23.5592069,14.1180036 23.5592069,13.392 C23.5592069,12.6599963 23.4077084,12.0120028 23.1047069,11.448 C22.8017054,10.8839972 22.3832096,10.4415016 21.8492069,10.1205 C21.3152042,9.7994984 20.7032103,9.639 20.0132069,9.639 C19.3232034,9.639 18.7112096,9.7994984 18.1772069,10.1205 C17.6432042,10.4415016 17.2232084,10.8839972 16.9172069,11.448 C16.6112054,12.0120028 16.4582069,12.6599963 16.4582069,13.392 C16.4582069,14.1180036 16.6112054,14.7644972 16.9172069,15.3315 C17.2232084,15.8985028 17.6432042,16.3424984 18.1772069,16.6635 C18.7112096,16.9845016 19.3232034,17.145 20.0132069,17.145 Z M27.8823103,18 L27.8823103,8.784 L29.1963103,8.784 L29.1963103,10.143 C29.4903118,9.6029973 29.869808,9.19350139 30.3348103,8.9145 C30.7998127,8.6354986 31.3383073,8.496 31.9503103,8.496 C32.2203117,8.496 32.4948089,8.5259997 32.7738103,8.586 C33.0528117,8.6460003 33.2943093,8.72399952 33.4983103,8.82 L32.9583103,9.927 C32.7783094,9.83699955 32.5728115,9.76800024 32.3418103,9.72 C32.1108092,9.67199976 31.8903114,9.648 31.6803103,9.648 C31.2543082,9.648 30.8523122,9.75599892 30.4743103,9.972 C30.0963085,10.1880011 29.7888115,10.4684983 29.5518103,10.8135 C29.3148092,11.1585017 29.1963103,11.5259981 29.1963103,11.916 L29.1963103,18 L27.8823103,18 Z M37.4074138,18.288 C36.7174103,18.288 36.1819157,18.0555023 35.8009138,17.5905 C35.4199119,17.1254977 35.2294138,16.4700042 35.2294138,15.624 L35.2294138,9.774 L34.2934138,9.774 L34.2934138,8.784 L35.2294138,8.784 L35.2294138,5.337 L36.5434138,5.337 L36.5434138,8.784 L38.8384138,8.784 L38.8384138,9.774 L36.5434138,9.774 L36.5434138,15.552 C36.5434138,16.0620025 36.6424128,16.4519987 36.8404138,16.722 C37.0384148,16.9920013 37.320412,17.127 37.6864138,17.127 C38.0404156,17.127 38.3524124,17.028001 38.6224138,16.83 L38.9554138,17.874 C38.7514128,18.0000006 38.5114152,18.1004996 38.2354138,18.1755 C37.9594124,18.2505004 37.6834152,18.288 37.4074138,18.288 Z" id="start" fill="#383B3A" fill-rule="nonzero"></path>
            </g>
        </g>
    </g>
</svg>