
<svg width="313px" height="67px" viewBox="0 0 313 67" version="1.1" xmlns="http://www.w3.org/2000/svg" xmlns:xlink="http://www.w3.org/1999/xlink">
    <defs>
        <linearGradient x1="115.441358%" y1="62.8566118%" x2="84.3491919%" y2="53.0336757%" id="linearGradient-1">
            <stop stop-color="#FFFFFF" offset="0%"></stop>
            <stop stop-color="#000000" offset="100%"></stop>
        </linearGradient>
    </defs>
    <g id="Page-1" stroke="none" stroke-width="1" fill="none" fill-rule="evenodd">
        <g id="logo-ZZZZ-path" fill-rule="nonzero">
            <path d="M14.895,45.225 C12.5249882,45.225 10.4250091,44.6925053 8.595,43.6275 C6.76499085,42.5624947 5.33250517,41.0850095 4.2975,39.195 C3.26249483,37.3049905 2.745,35.1450121 2.745,32.715 C2.745,30.2549877 3.2849946,28.0800094 4.365,26.19 C5.4450054,24.2999906 6.92999055,22.8225053 8.82,21.7575 C10.7100094,20.6924947 12.854988,20.16 15.255,20.16 C17.6850121,20.16 19.8374906,20.6924947 21.7125,21.7575 C23.5875094,22.8225053 25.0574947,24.2999906 26.1225,26.19 C27.1875053,28.0800094 27.7349999,30.2549877 27.765,32.715 L25.74,33.795 C25.74,36.0150111 25.2750046,37.9874914 24.345,39.7125 C23.4149953,41.4375086 22.1325082,42.7874951 20.4975,43.7625 C18.8624918,44.7375049 16.9950105,45.225 14.895,45.225 Z M15.345,54.72 C12.9749882,54.72 10.890009,54.2775044 9.09,53.3925 C7.289991,52.5074956 5.80500585,51.3000076 4.635,49.77 C4.30499835,49.4099982 4.16249977,49.0200021 4.2075,48.6 C4.25250022,48.1799979 4.46999805,47.8350013 4.86,47.565 C5.25000195,47.2949986 5.6849976,47.2049995 6.165,47.295 C6.5850021,47.3737504 6.92460887,47.5558581 7.18382784,47.8413276 L7.29,47.97 C8.16000435,49.0500054 9.27749318,49.9199967 10.6425,50.58 C12.0075068,51.2400033 13.589991,51.57 15.39,51.57 C17.0700084,51.57 18.5849933,51.1650041 19.935,50.355 C21.2850067,49.544996 22.357496,48.4050073 23.1525,46.935 C23.947504,45.4649926 24.345,43.7400099 24.345,41.76 L24.345,34.92 L25.65,32.31 L27.765,32.715 L27.765,41.895 C27.765,44.3250121 27.2250054,46.5074903 26.145,48.4425 C25.0649946,50.3775097 23.5950093,51.9074944 21.735,53.0325 C19.8749907,54.1575056 17.745012,54.72 15.345,54.72 Z M15.255,42.075 C17.0250088,42.075 18.5924932,41.677504 19.9575,40.8825 C21.3225068,40.087496 22.3949961,38.9850071 23.175,37.575 C23.9550039,36.1649929 24.345,34.5450091 24.345,32.715 C24.345,30.8849908 23.9550039,29.2575071 23.175,27.8325 C22.3949961,26.4074929 21.3225068,25.297504 19.9575,24.5025 C18.5924932,23.707496 17.0250088,23.31 15.255,23.31 C13.4849911,23.31 11.9100069,23.707496 10.53,24.5025 C9.1499931,25.297504 8.0700039,26.4074929 7.29,27.8325 C6.5099961,29.2575071 6.12,30.8849908 6.12,32.715 C6.12,34.5450091 6.5099961,36.1649929 7.29,37.575 C8.0700039,38.9850071 9.1499931,40.087496 10.53,40.8825 C11.9100069,41.677504 13.4849911,42.075 15.255,42.075 Z M43.2077586,45.27 C41.077748,45.27 39.172767,44.8275044 37.4927586,43.9425 C35.8127502,43.0574956 34.4852635,41.7600086 33.5102586,40.05 C32.5352537,38.3399914 32.0477586,36.2550123 32.0477586,33.795 L32.0477586,22.095 C32.0477586,21.6149976 32.212757,21.2100017 32.5427586,20.88 C32.8727603,20.5499984 33.2777562,20.385 33.7577586,20.385 C34.2677612,20.385 34.687757,20.5499984 35.0177586,20.88 C35.3477603,21.2100017 35.5127586,21.6149976 35.5127586,22.095 L35.5127586,33.795 C35.5127586,35.6550093 35.8652551,37.184994 36.5702586,38.385 C37.2752621,39.585006 38.2352525,40.484997 39.4502586,41.085 C40.6652647,41.685003 42.037751,41.985 43.5677586,41.985 C45.037766,41.985 46.3652527,41.7000029 47.5502586,41.13 C48.7352645,40.5599972 49.6727552,39.7800049 50.3627586,38.79 C51.0527621,37.799995 51.3977586,36.6750063 51.3977586,35.415 L53.8727586,35.415 C53.7827582,37.3050095 53.2652633,38.9924926 52.3202586,40.4775 C51.3752539,41.9625074 50.1077666,43.1324957 48.5177586,43.9875 C46.9277507,44.8425043 45.1577684,45.27 43.2077586,45.27 Z M53.1077586,45 C52.5977561,45 52.1852602,44.8425016 51.8702586,44.5275 C51.555257,44.2124984 51.3977586,43.7850027 51.3977586,43.245 L51.3977586,22.095 C51.3977586,21.5849974 51.555257,21.1725016 51.8702586,20.8575 C52.1852602,20.5424984 52.5977561,20.385 53.1077586,20.385 C53.6177612,20.385 54.037757,20.5424984 54.3677586,20.8575 C54.6977603,21.1725016 54.8627586,21.5849974 54.8627586,22.095 L54.8627586,43.245 C54.8627586,43.7850027 54.6977603,44.2124984 54.3677586,44.5275 C54.037757,44.8425016 53.6177612,45 53.1077586,45 Z M63.4205172,45 C62.8805145,45 62.4530188,44.8425016 62.1380172,44.5275 C61.8230157,44.2124984 61.6655172,43.7850027 61.6655172,43.245 L61.6655172,22.14 C61.6655172,21.5999973 61.8230157,21.1725016 62.1380172,20.8575 C62.4530188,20.5424984 62.8805145,20.385 63.4205172,20.385 C63.9305198,20.385 64.3430157,20.5424984 64.6580172,20.8575 C64.9730188,21.1725016 65.1305172,21.5999973 65.1305172,22.14 L65.1305172,43.245 C65.1305172,43.7850027 64.9730188,44.2124984 64.6580172,44.5275 C64.3430157,44.8425016 63.9305198,45 63.4205172,45 Z M63.3755172,15.705 C62.7155139,15.705 62.1455196,15.4650024 61.6655172,14.985 C61.1855148,14.5049976 60.9455172,13.9200034 60.9455172,13.23 C60.9455172,12.4799962 61.1930148,11.8875022 61.6880172,11.4525 C62.1830197,11.0174978 62.7605139,10.8 63.4205172,10.8 C64.0505204,10.8 64.6130148,11.0174978 65.1080172,11.4525 C65.6030197,11.8875022 65.8505172,12.4799962 65.8505172,13.23 C65.8505172,13.9200034 65.6105196,14.5049976 65.1305172,14.985 C64.6505148,15.4650024 64.0655207,15.705 63.3755172,15.705 Z M83.1382759,45.225 C80.768264,45.225 78.6382853,44.6775055 76.7482759,43.5825 C74.8582664,42.4874945 73.3657813,40.9950094 72.2707759,39.105 C71.1757704,37.2149905 70.6282759,35.070012 70.6282759,32.67 C70.6282759,30.2999882 71.1607705,28.1700095 72.2257759,26.28 C73.2907812,24.3899906 74.7382667,22.8975055 76.5682759,21.8025 C78.398285,20.7074945 80.4682643,20.16 82.7782759,20.16 C84.7882859,20.16 86.6032678,20.5874957 88.2232759,21.4425 C89.843284,22.2975043 91.1482709,23.4299929 92.1382759,24.84 L92.1382759,11.61 C92.1382759,11.0699973 92.3032742,10.6425016 92.6332759,10.3275 C92.9632775,10.0124984 93.3832733,9.855 93.8932759,9.855 C94.4032784,9.855 94.8232742,10.0124984 95.1532759,10.3275 C95.4832775,10.6425016 95.6482759,11.0699973 95.6482759,11.61 L95.6482759,32.85 C95.5882756,35.1900117 95.0107813,37.2974906 93.9157759,39.1725 C92.8207704,41.0475094 91.3357852,42.5249946 89.4607759,43.605 C87.5857665,44.6850054 85.4782876,45.225 83.1382759,45.225 Z M83.1382759,42.075 C84.8782846,42.075 86.430769,41.6625041 87.7957759,40.8375 C89.1607827,40.0124959 90.2407719,38.8950071 91.0357759,37.485 C91.8307798,36.074993 92.2282759,34.470009 92.2282759,32.67 C92.2282759,30.8999912 91.8307798,29.3025071 91.0357759,27.8775 C90.2407719,26.4524929 89.1607827,25.3350041 87.7957759,24.525 C86.430769,23.714996 84.8782846,23.31 83.1382759,23.31 C81.4282673,23.31 79.8832828,23.714996 78.5032759,24.525 C77.123269,25.3350041 76.0282799,26.4524929 75.2182759,27.8775 C74.4082718,29.3025071 74.0032759,30.8999912 74.0032759,32.67 C74.0032759,34.470009 74.4082718,36.074993 75.2182759,37.485 C76.0282799,38.8950071 77.123269,40.0124959 78.5032759,40.8375 C79.8832828,41.6625041 81.4282673,42.075 83.1382759,42.075 Z M103.782496,30.96 L120.262481,30.96 C120.146639,29.7704052 119.849492,28.6754111 119.371034,27.675 C118.711031,26.2949931 117.773541,25.2150039 116.558534,24.435 C115.343528,23.6549961 113.896043,23.265 112.216034,23.265 C110.506026,23.265 109.006041,23.669996 107.716034,24.48 C106.426034,25.2900041 105.428538,26.4074929 104.723534,27.8325 C104.311372,28.6655935 104.019692,29.5678905 103.848491,30.5394009 L103.782496,30.96 L103.782496,30.96 Z M103.718612,33.84 C103.850491,35.2160701 104.230463,36.4610621 104.858534,37.575 C105.653538,38.9850071 106.741028,40.0949959 108.121034,40.905 C109.501041,41.7150041 111.091025,42.12 112.891034,42.12 C113.97104,42.12 115.058529,41.9325019 116.153534,41.5575 C117.24854,41.1824981 118.126031,40.7100029 118.786034,40.14 C119.116036,39.8699986 119.491032,39.7275001 119.911034,39.7125 C120.331037,39.6974999 120.691033,39.8099988 120.991034,40.05 C121.381036,40.4100018 121.583534,40.7999979 121.598534,41.22 C121.613535,41.6400021 121.441036,41.9999985 121.081034,42.3 C120.09103,43.1400042 118.831042,43.8374972 117.301034,44.3925 C115.771027,44.9475028 114.301042,45.225 112.891034,45.225 C110.461022,45.225 108.308544,44.6925053 106.433534,43.6275 C104.558525,42.5624947 103.08854,41.0850095 102.023534,39.195 C100.958529,37.3049905 100.426034,35.1450121 100.426034,32.715 C100.426034,30.2549877 100.928529,28.0875094 101.933534,26.2125 C102.93854,24.3374906 104.326026,22.8600054 106.096034,21.78 C107.866043,20.6999946 109.906023,20.16 112.216034,20.16 C114.496046,20.16 116.483526,20.6774948 118.178534,21.7125 C119.873543,22.7475052 121.18603,24.1799909 122.116034,26.01 C123.046039,27.8400092 123.511034,29.9249883 123.511034,32.265 C123.511034,32.7450024 123.361036,33.1274986 123.061034,33.4125 C122.761033,33.6975014 122.371037,33.84 121.891034,33.84 L103.718612,33.84 L103.718612,33.84 Z M148.403793,9.855 C148.913796,9.855 149.333791,10.0124984 149.663793,10.3275 C149.993795,10.6425016 150.158793,11.0699973 150.158793,11.61 L150.158793,32.85 C150.098793,35.1900117 149.521299,37.2974906 148.426293,39.1725 C147.331288,41.0475094 145.846302,42.5249946 143.971293,43.605 C142.096284,44.6850054 139.988805,45.225 137.648793,45.225 C135.278781,45.225 133.148803,44.6775055 131.258793,43.5825 C129.368784,42.4874945 127.876299,40.9950094 126.781293,39.105 C125.686288,37.2149905 125.138793,35.070012 125.138793,32.67 C125.138793,30.2999882 125.671288,28.1700095 126.736293,26.28 C127.801298,24.3899906 129.248784,22.8975055 131.078793,21.8025 C132.908802,20.7074945 134.978782,20.16 137.288793,20.16 C139.298803,20.16 141.113785,20.5874957 142.733793,21.4425 C144.353801,22.2975043 145.658788,23.4299929 146.648793,24.84 L146.648793,11.61 C146.648793,11.0699973 146.813791,10.6425016 147.143793,10.3275 C147.473795,10.0124984 147.893791,9.855 148.403793,9.855 Z M137.648793,23.31 C135.938785,23.31 134.3938,23.714996 133.013793,24.525 C131.633786,25.3350041 130.538797,26.4524929 129.728793,27.8775 C128.918789,29.3025071 128.513793,30.8999912 128.513793,32.67 C128.513793,34.470009 128.918789,36.074993 129.728793,37.485 C130.538797,38.8950071 131.633786,40.0124959 133.013793,40.8375 C134.3938,41.6625041 135.938785,42.075 137.648793,42.075 C139.388802,42.075 140.941286,41.6625041 142.306293,40.8375 C143.6713,40.0124959 144.751289,38.8950071 145.546293,37.485 C146.341297,36.074993 146.738793,34.470009 146.738793,32.67 C146.738793,30.8999912 146.341297,29.3025071 145.546293,27.8775 C144.751289,26.4524929 143.6713,25.3350041 142.306293,24.525 C140.941286,23.714996 139.388802,23.31 137.648793,23.31 Z" id="guided" fill="#000000"></path>
            <path d="M170.738982,51.6670596 L179.382,23.259 C179.576668,22.6263302 179.905164,22.1031687 180.3675,21.6895 C180.829836,21.2758313 181.425996,21.069 182.156,21.069 C182.886004,21.069 183.482164,21.2636647 183.9445,21.653 C184.406836,22.0423353 184.735332,22.5776633 184.93,23.259 L193.318898,51.4948035 L202.596,23.186 C203.082669,21.7746596 203.982993,21.069 205.297,21.069 C206.367672,21.069 207.097665,21.470496 207.487,22.2735 C207.876335,23.076504 207.876335,23.9889949 207.487,25.011 L196.099,59.175 C195.904332,59.710336 195.575836,60.1483316 195.1135,60.489 C194.651164,60.8296684 194.10367,61 193.471,61 C192.83833,61 192.266503,60.8296684 191.7555,60.489 C191.244497,60.1483316 190.916001,59.710336 190.77,59.175 L182.01,30.1140476 L173.25,59.175 C173.055332,59.7590029 172.714669,60.2091651 172.228,60.5255 C171.741331,60.8418349 171.206003,61 170.622,61 C169.98933,61 169.429669,60.8296684 168.943,60.489 C168.456331,60.1483316 168.115668,59.710336 167.921,59.175 L156.533,25.011 C156.240999,23.7943273 156.265332,22.8331702 156.606,22.1275 C156.946668,21.4218298 157.627995,21.069 158.65,21.069 C159.28267,21.069 159.842331,21.2393316 160.329,21.58 C160.815669,21.9206684 161.180665,22.4559963 161.424,23.186 L170.738982,51.6670596 L170.738982,51.6670596 Z M228.450586,61.365 C224.703234,61.365 221.345268,60.4768422 218.376586,58.7005 C215.407905,56.9241578 213.059762,54.5030153 211.332086,51.437 C209.604411,48.3709847 208.740586,44.9156859 208.740586,41.071 C208.740586,37.1776472 209.628744,33.6980153 211.405086,30.632 C213.181428,27.5659847 215.602571,25.1448422 218.668586,23.3685 C221.734602,21.5921578 225.1899,20.704 229.034586,20.704 C232.879272,20.704 236.322404,21.5921578 239.364086,23.3685 C242.405768,25.1448422 244.814744,27.5659847 246.591086,30.632 C248.367428,33.6980153 249.279919,37.1776472 249.328586,41.071 L247.065586,42.823 C247.065586,46.3270175 246.250428,49.4781527 244.620086,52.2765 C242.989745,55.0748473 240.775434,57.2891585 237.977086,58.9195 C235.178739,60.5498415 232.003271,61.365 228.450586,61.365 Z M229.034586,56.255 C231.857267,56.255 234.375742,55.5980066 236.590086,54.284 C238.804431,52.9699934 240.556413,51.1571782 241.846086,48.8455 C243.135759,46.5338218 243.780586,43.9423477 243.780586,41.071 C243.780586,38.1509854 243.135759,35.5473448 241.846086,33.26 C240.556413,30.9726552 238.804431,29.15984 236.590086,27.8215 C234.375742,26.48316 231.857267,25.814 229.034586,25.814 C226.260572,25.814 223.754264,26.48316 221.515586,27.8215 C219.276908,29.15984 217.500593,30.9726552 216.186586,33.26 C214.87258,35.5473448 214.215586,38.1509854 214.215586,41.071 C214.215586,43.9423477 214.87258,46.5338218 216.186586,48.8455 C217.500593,51.1571782 219.276908,52.9699934 221.515586,54.284 C223.754264,55.5980066 226.260572,56.255 229.034586,56.255 Z M246.481586,61 C245.654249,61 244.972922,60.7445026 244.437586,60.2335 C243.90225,59.7224974 243.634586,59.0533375 243.634586,58.226 L243.634586,45.743 L245.021586,39.976 L249.328586,41.071 L249.328586,58.226 C249.328586,59.0533375 249.060922,59.7224974 248.525586,60.2335 C247.99025,60.7445026 247.308924,61 246.481586,61 Z M265.620172,61 C263.673496,61 261.93368,60.464672 260.400672,59.394 C258.867665,58.323328 257.675343,56.8390095 256.823672,54.941 C255.972001,53.0429905 255.546172,50.8530124 255.546172,48.371 L255.546172,6.761 C255.546172,5.93366253 255.80167,5.26450256 256.312672,4.7535 C256.823675,4.24249744 257.492835,3.987 258.320172,3.987 C259.14751,3.987 259.81667,4.24249744 260.327672,4.7535 C260.838675,5.26450256 261.094172,5.93366253 261.094172,6.761 L261.094172,48.371 C261.094172,50.4636771 261.520001,52.1669934 262.371672,53.481 C263.223343,54.7950066 264.306166,55.452 265.620172,55.452 L267.445172,55.452 C268.175176,55.452 268.75917,55.7074974 269.197172,56.2185 C269.635175,56.7295026 269.854172,57.3986625 269.854172,58.226 C269.854172,59.0533375 269.550009,59.7224974 268.941672,60.2335 C268.333336,60.7445026 267.542511,61 266.569172,61 L265.620172,61 Z M278.918759,47.641 L275.487759,43.918 L300.453759,21.361 C301.037762,20.825664 301.646089,20.5701665 302.278759,20.5945 C302.911428,20.6188335 303.495423,20.9229971 304.030759,21.507 C304.566095,22.0910029 304.821592,22.7114967 304.797259,23.3685 C304.772925,24.0255033 304.468762,24.5973309 303.884759,25.084 L278.918759,47.641 Z M277.093759,61 C276.266421,61 275.597261,60.7445026 275.086259,60.2335 C274.575256,59.7224974 274.319759,59.0533375 274.319759,58.226 L274.319759,6.761 C274.319759,5.93366253 274.575256,5.26450256 275.086259,4.7535 C275.597261,4.24249744 276.266421,3.987 277.093759,3.987 C277.921096,3.987 278.590256,4.24249744 279.101259,4.7535 C279.612261,5.26450256 279.867759,5.93366253 279.867759,6.761 L279.867759,58.226 C279.867759,59.0533375 279.612261,59.7224974 279.101259,60.2335 C278.590256,60.7445026 277.921096,61 277.093759,61 Z M304.103759,60.635 C303.471089,61.170336 302.814095,61.4015004 302.132759,61.3285 C301.513362,61.262136 300.974413,60.9645081 300.5159,60.4356081 L284.101759,40.268 L288.043759,36.764 L304.468759,56.985 C304.955428,57.5690029 305.174426,58.1894967 305.125759,58.8465 C305.077092,59.5035033 304.736428,60.099664 304.103759,60.635 Z" id="walk" fill="url(#linearGradient-1)"></path>
        </g>
    </g>
</svg>