
<svg width="190px" height="190px" viewBox="0 0 190 190" version="1.1" xmlns="http://www.w3.org/2000/svg" xmlns:xlink="http://www.w3.org/1999/xlink">
    <defs>
        <linearGradient x1="115.441358%" y1="62.6539992%" x2="84.3491919%" y2="52.9858668%" id="linearGradient-1">
            <stop stop-color="#FFFFFF" offset="0%"></stop>
            <stop stop-color="#000000" offset="100%"></stop>
        </linearGradient>
    </defs>
    <g id="Page-1" stroke="none" stroke-width="1" fill="none" fill-rule="evenodd">
        <g id="logo-ZZZZ-square" fill="url(#linearGradient-1)" fill-rule="nonzero">
            <path d="M35.4273524,114.365949 L44.0818973,86.1450382 C44.2768246,85.5165363 44.6057594,84.9968214 45.0687116,84.5858779 C45.5316639,84.1749343 46.1286196,83.9694656 46.8595969,83.9694656 C47.5905741,83.9694656 48.1875299,84.1628479 48.6504821,84.5496183 C49.1134343,84.9363887 49.4423692,85.46819 49.6372964,86.1450382 L58.0373824,114.194827 L67.3268568,86.0725191 C67.8141749,84.6704765 68.7157,83.9694656 70.031459,83.9694656 C71.1035589,83.9694656 71.8345251,84.3683166 72.2243797,85.1660305 C72.6142342,85.9637444 72.6142342,86.8702239 72.2243797,87.8854962 L60.821192,121.824427 C60.6262647,122.356237 60.2973299,122.791347 59.8343777,123.129771 C59.3714254,123.468195 58.8232008,123.637405 58.1896872,123.637405 C57.5561736,123.637405 56.9835833,123.468195 56.4718993,123.129771 C55.9602152,122.791347 55.6312804,122.356237 55.485085,121.824427 L46.7134021,92.9549255 L37.9417193,121.824427 C37.7467921,122.404583 37.4056745,122.85178 36.9183563,123.166031 C36.4310382,123.480281 35.8949963,123.637405 35.3102145,123.637405 C34.6767009,123.637405 34.1162934,123.468195 33.6289753,123.129771 C33.1416571,122.791347 32.8005395,122.356237 32.6056123,121.824427 L21.2024246,87.8854962 C20.9100337,86.6768387 20.9343993,85.7220137 21.275522,85.0209924 C21.6166447,84.319971 22.2988799,83.9694656 23.322248,83.9694656 C23.9557616,83.9694656 24.516169,84.1386752 25.0034872,84.4770992 C25.4908053,84.8155233 25.8562885,85.3473246 26.0999475,86.0725191 L35.4273524,114.365949 L35.4273524,114.365949 Z M93.2159241,124 C89.4635743,124 86.1011295,123.117693 83.1284888,121.353053 C80.1558481,119.588414 77.8045733,117.183221 76.0745939,114.137405 C74.3446145,111.091588 73.4796377,107.659052 73.4796377,103.839695 C73.4796377,99.9719908 74.36898,96.5152824 76.1476912,93.4694656 C77.9264025,90.4236489 80.3507739,88.0184567 83.4208782,86.2538168 C86.4909826,84.4891769 89.9508895,83.6068702 93.8007029,83.6068702 C97.6505163,83.6068702 101.09824,84.4891769 104.143979,86.2538168 C107.189717,88.0184567 109.601906,90.4236489 111.380617,93.4694656 C113.159328,96.5152824 114.073036,99.9719908 114.121768,103.839695 L111.85575,105.580153 C111.85575,109.061086 111.039504,112.191462 109.406989,114.971374 C107.774473,117.751286 105.557208,119.95101 102.755129,121.570611 C99.9530498,123.190212 96.7733465,124 93.2159241,124 Z M93.8007029,118.923664 C96.6271482,118.923664 99.1489818,118.270999 101.366279,116.965649 C103.583577,115.660299 105.337896,113.859426 106.629289,111.562977 C107.920682,109.266528 108.566369,106.692126 108.566369,103.839695 C108.566369,100.938917 107.920682,98.3524287 106.629289,96.0801527 C105.337896,93.8078767 103.583577,92.0070041 101.366279,90.6774809 C99.1489818,89.3479577 96.6271482,88.6832061 93.8007029,88.6832061 C91.0229895,88.6832061 88.5133386,89.3479577 86.2716752,90.6774809 C84.0300117,92.0070041 82.2513271,93.8078767 80.9355681,96.0801527 C79.6198091,98.3524287 78.9619395,100.938917 78.9619395,103.839695 C78.9619395,106.692126 79.6198091,109.266528 80.9355681,111.562977 C82.2513271,113.859426 84.0300117,115.660299 86.2716752,116.965649 C88.5133386,118.270999 91.0229895,118.923664 93.8007029,118.923664 Z M111.270971,123.637405 C110.44253,123.637405 109.760295,123.38359 109.224245,122.875954 C108.688195,122.368318 108.420174,121.703566 108.420174,120.881679 L108.420174,108.480916 L109.809024,102.751908 L114.121768,103.839695 L114.121768,120.881679 C114.121768,121.703566 113.853747,122.368318 113.317697,122.875954 C112.781647,123.38359 112.099412,123.637405 111.270971,123.637405 Z M130.435082,123.637405 C128.485809,123.637405 126.743673,123.105603 125.208621,122.041985 C123.673568,120.978366 122.479657,119.503826 121.62685,117.618321 C120.774043,115.732815 120.347646,113.557264 120.347646,111.091603 L120.347646,69.7557252 C120.347646,68.9338381 120.603485,68.2690865 121.115169,67.7614504 C121.626853,67.2538143 122.296905,67 123.125346,67 C123.953787,67 124.623839,67.2538143 125.135523,67.7614504 C125.647207,68.2690865 125.903046,68.9338381 125.903046,69.7557252 L125.903046,111.091603 C125.903046,113.170494 126.329443,114.862589 127.182249,116.167939 C128.035056,117.473289 129.119323,118.125954 130.435082,118.125954 L132.262516,118.125954 C132.993493,118.125954 133.578266,118.379768 134.016852,118.887405 C134.455438,119.395041 134.674728,120.059792 134.674728,120.881679 C134.674728,121.703566 134.370159,122.368318 133.761011,122.875954 C133.151864,123.38359 132.359984,123.637405 131.385347,123.637405 L130.435082,123.637405 Z M143.751404,110.366412 L140.315828,106.667939 L165.315124,84.259542 C165.899906,83.7277327 166.509044,83.4739185 167.142558,83.4980916 C167.776071,83.5222648 168.360844,83.8244246 168.896894,84.4045802 C169.432944,84.9847357 169.688782,85.6011418 169.664417,86.2538168 C169.640051,86.9064918 169.335481,87.4745523 168.7507,87.9580153 L143.751404,110.366412 Z M141.92397,123.637405 C141.095529,123.637405 140.425476,123.38359 139.913792,122.875954 C139.402108,122.368318 139.14627,121.703566 139.14627,120.881679 L139.14627,69.7557252 C139.14627,68.9338381 139.402108,68.2690865 139.913792,67.7614504 C140.425476,67.2538143 141.095529,67 141.92397,67 C142.752411,67 143.422463,67.2538143 143.934147,67.7614504 C144.445831,68.2690865 144.701669,68.9338381 144.701669,69.7557252 L144.701669,120.881679 C144.701669,121.703566 144.445831,122.368318 143.934147,122.875954 C143.422463,123.38359 142.752411,123.637405 141.92397,123.637405 Z M168.969992,123.274809 C168.336478,123.806618 167.678608,124.03626 166.996363,123.96374 C166.37614,123.897814 165.836473,123.602146 165.377348,123.076731 L148.941316,103.041985 L152.888573,99.5610687 L169.335478,119.648855 C169.822797,120.229011 170.042086,120.845417 169.993355,121.498092 C169.944623,122.150767 169.603505,122.743 168.969992,123.274809 Z" id="walk"></path>
        </g>
    </g>
</svg>